<?xml version="1.0" encoding="UTF-8"?>
<svg xmlns="http://www.w3.org/2000/svg" viewBox="0 0 755 1128" width="63" height="96">
<g transform="translate(0.000000,1128.000000) scale(0.100000,-0.100000)" fill="#4a4e54" stroke="none">
<path d="M1806 9621 c-4 -5 2 -7 13 -4 13 3 30 -7 54 -34 19 -21 47 -51 62
-68 22 -25 21 -22 -4 11 -68 92 -109 122 -125 95z M1781 9584 c0 -11 3 -14 6
-6 3 7 2 16 -1 19 -3 4 -6 -2 -5 -13z M1810 9515 c0 -5 10 -21 21 -35 13 -17
17 -18 10 -5 -17 33 -31 51 -31 40z M1980 9455 c0 -8 101 -145 106 -145 3 0
-18 34 -47 75 -48 70 -59 83 -59 70z M1695 9430 c10 -11 20 -20 22 -20 2 0 -2
9 -9 20 -7 11 -17 20 -22 20 -5 0 -1 -9 9 -20z M1860 9431 c5 -11 15 -23 21
-27 6 -3 3 5 -6 20 -20 30 -30 35 -15 7z M1737 9369 c10 -17 24 -36 32 -42 8
-7 2 7 -14 31 -32 49 -45 57 -18 11z M1906 9362 c10 -19 32 -48 47 -65 20 -23
18 -17 -9 23 -46 67 -64 87 -38 42z M1630 9360 c6 -11 13 -20 16 -20 2 0 0 9
-6 20 -6 11 -13 20 -16 20 -2 0 0 -9 6 -20z M1389 9343 c-13 -16 -12 -17 4 -4
9 7 17 15 17 17 0 8 -8 3 -21 -13z M1500 9293 c13 -18 25 -33 27 -33 8 0 -17
38 -33 51 -11 9 -9 2 6 -18z M1780 9306 c0 -2 8 -10 18 -17 15 -13 16 -12 3 4
-13 16 -21 21 -21 13z M2117 9260 c15 -22 32 -40 36 -40 5 0 -6 18 -23 40 -41
52 -50 52 -13 0z M1679 9275 c5 -11 17 -29 26 -40 l16 -20 -10 20 c-5 11 -17
29 -26 40 l-16 20 10 -20z M1854 9207 c26 -36 51 -69 56 -72 14 -8 -68 111
-86 126 -9 7 5 -17 30 -54z M1400 9247 c0 -9 91 -147 98 -147 4 0 -7 19 -65
105 -18 27 -33 46 -33 42z M1216 9221 c-4 -5 3 -7 14 -4 23 6 26 13 6 13 -8 0
-17 -4 -20 -9z M1320 9131 c33 -50 63 -91 66 -91 3 0 1 6 -3 13 -60 94 -104
156 -113 162 -6 3 17 -34 50 -84z M1581 9178 c18 -27 34 -48 36 -48 7 0 -16
35 -42 65 -20 23 -19 18 6 -17z M2175 9190 c10 -11 20 -20 22 -20 2 0 -2 9 -9
20 -7 11 -17 20 -22 20 -5 0 -1 -9 9 -20z M1192 9175 c0 -16 2 -22 5 -12 2 9
2 23 0 30 -3 6 -5 -1 -5 -18z M2056 9148 c20 -29 46 -62 57 -73 11 -11 -4 13
-33 53 -28 39 -54 72 -57 72 -2 0 12 -24 33 -52z M2245 9111 c27 -28 51 -51
53 -51 8 0 -63 77 -83 90 -11 7 2 -11 30 -39z M1760 9147 c0 -9 71 -117 78
-117 2 0 -4 12 -13 28 -44 67 -65 96 -65 89z M1210 9115 c0 -5 5 -17 10 -25 5
-8 10 -10 10 -5 0 6 -5 17 -10 25 -5 8 -10 11 -10 5z M1986 9024 c62 -92 99
-141 79 -104 -25 44 -118 180 -131 190 -8 7 15 -32 52 -86z M1230 9061 c0 -5
5 -13 10 -16 6 -3 10 -2 10 4 0 5 -4 13 -10 16 -5 3 -10 2 -10 -4z M1530 9040
c6 -11 13 -20 16 -20 2 0 0 9 -6 20 -6 11 -13 20 -16 20 -2 0 0 -9 6 -20z
M2140 9031 c5 -11 15 -23 21 -27 6 -3 3 5 -6 20 -20 30 -30 35 -15 7z M2329
9013 c12 -18 26 -35 31 -38 18 -11 10 2 -21 36 l-31 34 21 -32z M1396 9018
c22 -36 106 -163 111 -168 3 -3 0 6 -7 20 -18 34 -102 160 -107 160 -2 0 -1
-6 3 -12z M1695 9010 c10 -11 20 -20 23 -20 3 0 -3 9 -13 20 -10 11 -20 20
-23 20 -3 0 3 -9 13 -20z M1280 8976 c0 -11 49 -96 56 -96 2 0 -5 17 -15 38
-26 48 -41 69 -41 58z M1736 8953 c53 -83 67 -103 71 -103 3 0 -3 12 -13 28
-53 82 -67 102 -71 102 -3 0 3 -12 13 -27z M1895 8925 c15 -27 32 -54 37 -60
16 -15 -28 67 -47 90 -9 11 -5 -2 10 -30z M1580 8951 c0 -6 4 -13 10 -16 6 -3
7 1 4 9 -7 18 -14 21 -14 7z M2390 8943 c0 -6 8 -17 18 -24 16 -13 16 -13 2 6
-8 11 -16 22 -17 24 -2 2 -3 0 -3 -6z M1610 8900 c6 -11 13 -20 16 -20 2 0 0
9 -6 20 -6 11 -13 20 -16 20 -2 0 0 -9 6 -20z M2080 8880 c6 -11 13 -20 16
-20 2 0 0 9 -6 20 -6 11 -13 20 -16 20 -2 0 0 -9 6 -20z M2489 8815 c68 -87
123 -152 110 -130 -9 15 -71 96 -99 129 -69 81 -74 81 -11 1z M1350 8846 c0
-8 42 -76 46 -76 3 0 -5 18 -16 40 -18 35 -30 49 -30 36z M1950 8830 c6 -11
13 -20 16 -20 2 0 0 9 -6 20 -6 11 -13 20 -16 20 -2 0 0 -9 6 -20z M1835 8803
c15 -24 30 -43 32 -43 7 0 -31 61 -46 73 -8 7 -2 -7 14 -30z M1660 8816 c0
-10 51 -96 57 -96 3 0 -7 21 -23 48 -31 54 -34 58 -34 48z M2010 8735 c12 -22
30 -51 41 -65 17 -21 17 -18 -3 16 -35 61 -64 99 -38 49z M1400 8757 c0 -11
29 -67 35 -67 2 0 2 8 -2 18 -8 22 -33 59 -33 49z M1880 8731 c5 -11 15 -23
21 -27 6 -3 3 5 -6 20 -20 30 -30 35 -15 7z M1720 8701 c0 -6 4 -13 10 -16 6
-3 7 1 4 9 -7 18 -14 21 -14 7z M1919 8675 c5 -11 17 -29 26 -40 l16 -20 -10
20 c-5 11 -17 29 -26 40 l-16 20 10 -20z M2230 8655 c0 -9 70 -105 76 -105 7
0 -4 17 -43 68 -18 24 -33 40 -33 37z M2075 8630 c16 -28 108 -165 118 -175
15 -15 1 9 -56 95 -47 71 -81 115 -62 80z M2630 8626 c0 -2 8 -10 18 -17 15
-13 16 -12 3 4 -13 16 -21 21 -21 13z M1495 8570 c9 -16 18 -30 21 -30 2 0 -2
14 -11 30 -9 17 -18 30 -21 30 -2 0 2 -13 11 -30z M2791 8413 c126 -170 205
-268 124 -153 -22 30 -48 68 -60 85 -39 57 -176 235 -186 241 -6 3 49 -75 122
-173z M1800 8560 c16 -32 109 -172 123 -185 14 -14 2 6 -66 110 -62 95 -78
116 -57 75z M2010 8531 c5 -11 15 -23 21 -27 6 -3 3 5 -6 20 -20 30 -30 35
-15 7z M2320 8535 c0 -5 79 -117 110 -155 11 -14 20 -20 20 -15 0 6 -13 25
-30 43 -16 18 -43 55 -60 83 -29 45 -40 57 -40 44z M1732 8500 c12 -16 23 -30
25 -30 2 0 -4 14 -14 30 -9 17 -21 30 -25 30 -5 0 1 -13 14 -30z M1549 8485
c5 -11 17 -29 26 -40 l16 -20 -10 20 c-5 11 -17 29 -26 40 l-16 20 10 -20z
M2045 8480 c19 -33 106 -160 111 -160 5 0 -93 149 -109 165 -7 7 -7 5 -2 -5z
M2500 8476 c0 -7 61 -96 66 -96 2 0 -10 23 -27 50 -28 45 -39 58 -39 46z
M1760 8456 c0 -2 8 -10 18 -17 15 -13 16 -12 3 4 -13 16 -21 21 -21 13z M1600
8400 c6 -11 13 -20 16 -20 2 0 0 9 -6 20 -6 11 -13 20 -16 20 -2 0 0 -9 6 -20z
M1805 8400 c10 -11 20 -20 23 -20 3 0 -3 9 -13 20 -10 11 -20 20 -23 20 -3 0
3 -9 13 -20z M2245 8350 c9 -16 18 -30 21 -30 2 0 -2 14 -11 30 -9 17 -18 30
-21 30 -2 0 2 -13 11 -30z M1630 8351 c5 -11 15 -23 21 -27 6 -3 3 5 -6 20
-20 30 -30 35 -15 7z M1848 8342 c13 -17 28 -35 34 -39 7 -3 2 8 -10 25 -13
17 -28 35 -34 39 -7 3 -2 -8 10 -25z M1951 8325 c12 -22 26 -44 32 -50 15 -16
-20 48 -38 70 -9 11 -7 2 6 -20z M2470 8323 c13 -18 25 -33 27 -33 8 0 -17 38
-33 51 -11 9 -9 2 6 -18z M2605 8310 c9 -16 18 -30 21 -30 2 0 -2 14 -11 30
-9 17 -18 30 -21 30 -2 0 2 -13 11 -30z M1925 8241 c20 -28 41 -54 47 -57 5
-3 -7 17 -27 45 -20 28 -41 54 -47 57 -5 3 7 -17 27 -45z M2500 8276 c0 -2 8
-10 18 -17 15 -13 16 -12 3 4 -13 16 -21 21 -21 13z M2648 8235 c14 -28 140
-227 148 -234 12 -11 -19 44 -79 139 -59 93 -90 135 -69 95z M1705 8230 c28
-49 117 -190 121 -190 3 0 3 3 1 8 -88 142 -111 179 -119 187 -8 7 -8 5 -3 -5z
M2319 8222 c5 -10 18 -25 27 -33 11 -9 9 -2 -6 19 -26 35 -36 42 -21 14z
M2035 8181 c8 -17 19 -33 25 -36 5 -3 1 10 -11 29 -25 43 -36 48 -14 7z M2250
8183 c13 -18 25 -33 27 -33 8 0 -17 38 -33 51 -11 9 -9 2 6 -18z M2965 8176
c10 -14 19 -26 22 -26 7 0 -17 39 -28 46 -6 3 -3 -5 6 -20z M2036 8090 c30
-44 57 -80 60 -80 7 0 -94 148 -106 155 -5 3 15 -30 46 -75z M2390 8128 c16
-24 46 -61 66 -83 19 -22 8 -3 -26 43 -34 45 -64 82 -66 82 -3 0 9 -19 26 -42z
M2080 8111 c5 -11 15 -23 21 -27 6 -3 3 5 -6 20 -20 30 -30 35 -15 7z M2330
8065 c17 -25 33 -45 36 -45 3 0 -9 20 -26 45 -17 25 -33 45 -36 45 -3 0 9 -20
26 -45z M2642 8075 c13 -19 27 -35 31 -35 4 0 -4 16 -19 35 -34 45 -41 45 -12
0z M2116 8058 c21 -36 85 -128 89 -128 3 0 -16 32 -41 70 -26 39 -49 70 -51
70 -2 0 -1 -6 3 -12z M3090 7995 c28 -44 56 -84 62 -90 16 -15 -64 112 -90
143 -12 15 0 -9 28 -53z M2695 8010 c10 -11 20 -20 23 -20 3 0 -3 9 -13 20
-10 11 -20 20 -23 20 -3 0 3 -9 13 -20z M2380 7991 c5 -11 15 -23 21 -27 6 -3
3 5 -6 20 -20 30 -30 35 -15 7z M1850 7998 c0 -4 17 -34 38 -66 59 -95 65
-101 30 -35 -32 62 -67 114 -68 101z M2100 7996 c0 -2 8 -10 18 -17 15 -13 16
-12 3 4 -13 16 -21 21 -21 13z M2806 7977 c3 -10 9 -15 12 -12 3 3 0 11 -7 18
-10 9 -11 8 -5 -6z M2760 7938 c41 -45 50 -53 50 -45 0 2 -21 23 -47 47 l-48
45 45 -47z M2821 7945 c0 -5 6 -21 14 -35 8 -14 14 -20 14 -15 0 6 -6 21 -14
35 -8 14 -14 21 -14 15z M2575 7880 c44 -65 53 -76 32 -35 -9 17 -28 44 -42
60 -17 19 -13 10 10 -25z M2430 7916 c0 -2 8 -10 18 -17 15 -13 16 -12 3 4
-13 16 -21 21 -21 13z M2828 7878 c5 -5 16 -8 23 -6 8 3 3 7 -10 11 -17 4 -21
3 -13 -5z M2249 7863 c6 -10 22 -31 36 -48 20 -23 19 -18 -6 18 -32 46 -49 63
-30 30z M2522 7818 c32 -32 64 -58 70 -58 7 0 1 7 -12 16 -14 10 -45 35 -71
58 -25 23 -19 15 13 -16z M2220 7830 c11 -16 26 -33 32 -36 7 -4 -1 9 -16 29
-34 44 -46 50 -16 7z M3204 7827 c16 -20 30 -37 33 -37 7 0 -36 58 -49 66 -7
4 1 -9 16 -29z M1975 7790 c16 -28 108 -165 118 -175 15 -15 1 9 -56 95 -47
71 -81 115 -62 80z M2280 7755 c26 -36 75 -86 93 -96 24 -14 22 9 -4 41 -17
21 -19 22 -10 3 21 -42 10 -37 -42 17 -29 30 -45 46 -37 35z M2320 7761 c5
-11 15 -23 21 -27 6 -3 3 5 -6 20 -20 30 -30 35 -15 7z M3300 7715 c14 -30 26
-50 28 -45 4 10 -34 86 -46 94 -4 2 4 -20 18 -49z M2618 7753 c7 -3 16 -2 19
1 4 3 -2 6 -13 5 -11 0 -14 -3 -6 -6z M3352 7560 c0 -14 2 -19 5 -12 2 6 2 18
0 25 -3 6 -5 1 -5 -13z M2135 7546 c10 -14 19 -26 22 -26 7 0 -17 39 -28 46
-6 3 -3 -5 6 -20z M3901 7530 c-122 -45 -217 -111 -278 -193 -65 -88 -97 -170
-124 -319 -11 -59 -27 -125 -36 -145 l-17 -38 -7 35 c-6 34 -6 34 -8 5 0 -16
4 -37 9 -45 12 -19 47 59 61 135 5 30 13 79 19 108 37 206 165 361 360 436 92
36 147 39 209 11 24 -11 51 -20 61 -20 27 0 56 -42 81 -117 18 -55 21 -81 17
-154 -6 -95 -25 -141 -90 -215 -51 -58 -226 -182 -299 -211 -38 -16 -67 -32
-66 -37 2 -5 30 -18 62 -30 85 -31 188 -88 237 -133 120 -108 150 -140 204
-221 32 -48 97 -141 144 -207 48 -66 126 -178 174 -249 105 -155 154 -216 256
-321 74 -76 82 -81 140 -93 34 -7 64 -11 66 -9 3 2 -24 10 -58 17 -58 13 -68
19 -131 84 -102 105 -177 199 -269 337 -46 68 -108 158 -139 199 -30 41 -88
125 -129 185 -96 143 -129 182 -223 263 -83 70 -164 119 -261 156 -64 25 -64
25 12 55 29 11 103 59 166 105 169 125 216 202 216 353 0 118 -55 253 -103
253 -13 0 -33 7 -45 16 -37 25 -148 28 -211 4z M3362 7488 c-1 -20 -5 -45 -8
-55 -5 -17 -5 -17 6 0 6 9 9 34 7 55 l-4 37 -1 -37z M2152 7480 c0 -14 2 -19
5 -12 2 6 2 18 0 25 -3 6 -5 1 -5 -13z M2160 7446 c0 -2 8 -10 18 -17 15 -13
16 -12 3 4 -13 16 -21 21 -21 13z M3999 7395 c-108 -55 -219 -161 -267 -254
-46 -89 -43 -113 10 -92 13 5 36 12 52 16 15 3 26 8 23 11 -2 3 -26 0 -51 -7
-26 -6 -49 -10 -51 -7 -2 2 9 33 26 68 44 93 158 202 269 257 77 39 86 41 98
26 46 -62 -35 -204 -151 -264 -22 -11 -36 -23 -33 -26 8 -9 97 51 138 94 60
62 82 135 58 197 -5 14 -15 26 -22 25 -7 0 -52 -20 -99 -44z M2210 7385 c13
-14 26 -25 28 -25 3 0 -5 11 -18 25 -13 14 -26 25 -28 25 -3 0 5 -11 18 -25z
M3390 7367 c44 -47 65 -63 39 -30 -18 23 -29 33 -59 58 -14 11 -5 -2 20 -28z
M2253 7338 c9 -7 18 -25 21 -40 15 -88 211 -278 273 -266 13 2 8 8 -19 21 -69
33 -248 231 -248 274 0 6 -7 14 -16 17 -25 10 -29 7 -11 -6z M3462 7240 c0
-14 2 -19 5 -12 2 6 2 18 0 25 -3 6 -5 1 -5 -13z M3471 7164 c0 -11 3 -14 6
-6 3 7 2 16 -1 19 -3 4 -6 -2 -5 -13z M3462 7120 c0 -14 2 -19 5 -12 2 6 2 18
0 25 -3 6 -5 1 -5 -13z M3860 7100 c-19 -11 -29 -19 -22 -20 14 0 72 28 72 35
0 9 -15 4 -50 -15z M3451 7054 c0 -11 3 -14 6 -6 3 7 2 16 -1 19 -3 4 -6 -2
-5 -13z M2580 7020 c8 -5 22 -9 30 -9 10 0 8 3 -5 9 -27 12 -43 12 -25 0z
M3441 7014 c0 -11 3 -14 6 -6 3 7 2 16 -1 19 -3 4 -6 -2 -5 -13z M2630 7006
c0 -2 7 -6 15 -10 8 -3 15 -1 15 4 0 6 -7 10 -15 10 -8 0 -15 -2 -15 -4z
M3432 6960 c0 -14 2 -19 5 -12 2 6 2 18 0 25 -3 6 -5 1 -5 -13z M2661 6934 c0
-11 3 -14 6 -6 3 7 2 16 -1 19 -3 4 -6 -2 -5 -13z M2705 6865 c11 -9 29 -21
40 -26 l20 -10 -20 16 c-11 9 -29 21 -40 26 l-20 10 20 -16z M2777 6819 c7 -7
15 -10 18 -7 3 3 -2 9 -12 12 -14 6 -15 5 -6 -5z M2838 6793 c7 -3 16 -2 19 1
4 3 -2 6 -13 5 -11 0 -14 -3 -6 -6z M2878 6783 c7 -3 16 -2 19 1 4 3 -2 6 -13
5 -11 0 -14 -3 -6 -6z M2925 6770 c11 -5 27 -9 35 -9 9 0 8 4 -5 9 -11 5 -27
9 -35 9 -9 0 -8 -4 5 -9z M3020 6750 c14 -4 34 -8 45 -8 16 0 15 2 -5 8 -14 4
-34 8 -45 8 -16 0 -15 -2 5 -8z M3098 6733 c7 -3 16 -2 19 1 4 3 -2 6 -13 5
-11 0 -14 -3 -6 -6z M3150 6717 c0 -2 15 -16 33 -33 l32 -29 -29 33 c-28 30
-36 37 -36 29z M3225 6631 l19 -23 -24 -19 c-26 -21 -127 -71 -190 -94 -77
-28 -340 -161 -410 -208 -103 -68 -145 -115 -193 -216 -37 -76 -42 -94 -42
-156 0 -84 24 -139 74 -172 42 -28 148 -32 206 -7 57 24 235 147 276 190 35
38 49 60 139 212 23 40 57 84 74 99 28 24 185 103 203 103 5 0 27 -39 50 -87
56 -117 65 -140 74 -193 l8 -45 -3 50 c-3 58 -102 285 -124 285 -7 0 -52 -17
-99 -37 -108 -47 -151 -89 -223 -218 -70 -125 -132 -193 -244 -267 -144 -95
-158 -101 -243 -96 -60 4 -78 10 -99 29 -43 40 -58 78 -58 154 0 61 5 80 38
149 78 161 166 223 582 411 157 71 244 119 244 134 0 3 -13 15 -28 25 l-27 20
20 -23z M3643 6555 c-29 -13 -53 -29 -53 -36 0 -8 7 -6 19 5 11 10 46 26 78
36 36 12 49 19 33 19 -14 1 -49 -10 -77 -24z M3800 6571 c84 -26 174 -119 260
-272 29 -52 63 -107 74 -124 12 -16 26 -37 31 -46 41 -69 160 -226 254 -339
108 -129 302 -268 433 -309 20 -7 40 -20 43 -30 13 -41 339 -253 456 -296 70
-26 172 -54 194 -54 11 1 -10 9 -46 18 -195 52 -422 179 -570 317 -31 29 -68
56 -82 59 -57 15 -191 95 -279 168 -144 118 -371 411 -496 641 -68 122 -135
202 -210 250 -23 14 -52 26 -64 25 -22 -1 -22 -1 2 -8z M3641 6428 c19 -36 81
-128 87 -128 2 0 -2 10 -10 23 -9 12 -30 46 -47 75 -33 52 -52 72 -30 30z
M3765 6236 c10 -14 19 -26 22 -26 7 0 -17 39 -28 46 -6 3 -3 -5 6 -20z M3829
6143 c12 -17 51 -62 89 -101 43 -44 49 -49 17 -13 -28 31 -68 76 -89 101 -21
25 -29 31 -17 13z M2675 6100 c-48 -22 -33 -26 18 -5 20 8 48 15 63 15 25 0
26 -2 19 -32 -14 -64 -14 -82 -1 -43 8 22 15 50 15 63 1 19 -4 22 -36 21 -21
0 -56 -9 -78 -19z M2590 6063 c-53 -35 -90 -78 -110 -128 -20 -49 -20 -55 -6
-88 15 -36 49 -55 78 -44 7 3 1 6 -13 6 -33 1 -60 31 -61 68 -2 55 61 142 138
190 10 6 15 12 9 12 -5 0 -21 -7 -35 -16z M3590 6040 c0 -5 5 -10 11 -10 5 0
7 5 4 10 -3 6 -8 10 -11 10 -2 0 -4 -4 -4 -10z M3606 5933 c9 -115 18 -123 11
-11 -3 60 -1 86 6 81 6 -3 7 -1 3 5 -20 33 -27 7 -20 -75z M3466 5995 c-3 -9
-6 -31 -5 -48 1 -28 2 -26 10 12 9 46 6 65 -5 36z M2746 5960 c-5 -19 -21 -50
-37 -68 -16 -18 -29 -37 -29 -42 0 -5 -18 -16 -40 -26 -22 -10 -38 -20 -35
-22 11 -11 82 32 102 61 33 47 55 97 50 115 -2 10 -7 2 -11 -18z M3641 5965
c0 -5 6 -19 14 -29 8 -11 15 -15 15 -10 0 6 -7 19 -15 30 -8 10 -14 15 -14 9z
M4025 5940 c10 -11 20 -20 23 -20 3 0 -3 9 -13 20 -10 11 -20 20 -23 20 -3 0
3 -9 13 -20z M4096 5879 c21 -25 41 -44 44 -42 2 2 -16 23 -40 46 l-44 42 40
-46z M3451 5894 c-2 -34 -86 -280 -102 -300 -4 -5 -24 -75 -44 -154 -28 -114
-35 -162 -33 -229 l1 -86 7 105 c7 108 52 300 89 382 11 24 26 63 34 88 9 25
25 72 37 105 11 33 19 71 17 85 -3 21 -4 21 -6 4z M3680 5885 c0 -5 5 -17 10
-25 5 -8 10 -10 10 -5 0 6 -5 17 -10 25 -5 8 -10 11 -10 5z M4140 5815 c0 -5
5 -17 10 -25 5 -8 10 -10 10 -5 0 6 -5 17 -10 25 -5 8 -10 11 -10 5z M3619
5640 c-5 -138 -10 -181 -33 -260 -27 -93 -59 -183 -98 -268 -15 -34 -17 -47
-7 -58 6 -8 16 -14 22 -14 5 0 39 -22 76 -48 92 -67 176 -117 241 -141 79 -30
191 -101 216 -138 12 -18 34 -71 50 -119 15 -48 30 -82 32 -76 8 25 -67 210
-94 233 -29 24 -174 104 -214 118 -44 15 -159 82 -225 132 -27 21 -63 42 -79
48 -16 7 -26 16 -23 24 63 147 84 202 113 309 33 123 34 134 32 275 l-3 148
-6 -165z M4160 5763 c0 -5 7 -18 15 -29 13 -18 14 -18 8 4 -5 22 -23 41 -23
25z M3730 5705 c0 -5 5 -17 10 -25 5 -8 10 -10 10 -5 0 6 -5 17 -10 25 -5 8
-10 11 -10 5z M4210 5685 c13 -14 26 -25 28 -25 3 0 -5 11 -18 25 -13 14 -26
25 -28 25 -3 0 5 -11 18 -25z M4261 5623 c27 -39 30 -40 55 -10 l19 22 -22
-19 c-22 -18 -22 -18 -48 10 l-26 29 22 -32z M4353 5626 c9 -7 17 -18 17 -25
0 -6 5 -11 10 -11 17 0 -6 37 -27 44 -17 6 -17 5 0 -8z M3751 5589 c-1 -9 9
-24 22 -35 22 -19 22 -19 6 1 -9 11 -19 27 -22 35 -5 13 -6 13 -6 -1z M4366
5563 c-6 -14 -5 -15 5 -6 7 7 10 15 7 18 -3 3 -9 -2 -12 -12z M3815 5520 c10
-11 20 -20 23 -20 3 0 -3 9 -13 20 -10 11 -20 20 -23 20 -3 0 3 -9 13 -20z
M5091 5496 c2 -2 27 -6 54 -10 34 -4 43 -3 30 3 -19 9 -93 15 -84 7z M3842
5460 c0 -19 2 -27 5 -17 2 9 2 25 0 35 -3 9 -5 1 -5 -18z M4390 5477 c0 -3 20
-12 45 -20 45 -16 65 -14 23 2 -43 16 -68 22 -68 18z M5320 5454 c212 -40 298
-82 405 -195 33 -35 75 -76 93 -92 33 -28 38 -42 23 -66 -7 -11 -35 -13 -142
-8 -96 4 -115 3 -69 -3 85 -11 205 -14 219 -6 6 4 11 19 11 34 0 42 -219 243
-308 284 -66 29 -279 79 -331 77 -14 0 30 -12 99 -25z M4500 5426 c0 -2 8 -10
18 -17 15 -13 16 -12 3 4 -13 16 -21 21 -21 13z M3850 5415 c0 -5 9 -23 20
-40 26 -39 26 -25 0 17 -11 18 -20 29 -20 23z M4551 5355 c1 -19 18 -51 18
-35 0 8 -4 22 -9 30 -5 8 -9 11 -9 5z M3884 5325 c-3 -8 -4 -20 -2 -27 3 -7 7
-1 10 15 6 29 1 36 -8 12z M4572 5275 c0 -16 2 -22 5 -12 2 9 2 23 0 30 -3 6
-5 -1 -5 -18z M3966 5217 c3 -10 9 -15 12 -12 3 3 0 11 -7 18 -10 9 -11 8 -5
-6z M4580 5215 c0 -5 10 -21 21 -35 13 -17 17 -18 10 -5 -17 33 -31 51 -31 40z
M3982 5155 c0 -16 2 -22 5 -12 2 9 2 23 0 30 -3 6 -5 -1 -5 -18z M3281 5084
c1 -21 5 -50 9 -64 5 -16 6 -2 3 35 -7 69 -13 86 -12 29z M4640 5116 c0 -2 8
-10 18 -17 15 -13 16 -12 3 4 -13 16 -21 21 -21 13z M3990 5104 c0 -6 7 -19
16 -30 14 -18 14 -18 3 6 -14 31 -19 36 -19 24z M4028 5035 c6 -11 25 -33 44
-50 l33 -30 -35 40 c-19 22 -39 45 -44 50 -5 6 -4 1 2 -10z M3305 4965 c29
-143 196 -304 425 -407 53 -24 211 -119 236 -142 7 -6 31 -28 53 -48 27 -26
49 -38 69 -38 48 0 56 19 43 102 l-10 73 4 -71 c6 -111 -22 -122 -111 -44 -64
56 -204 146 -279 179 -146 64 -300 181 -364 275 -16 23 -38 66 -50 96 -12 30
-19 42 -16 25z M4132 4930 c7 -11 17 -20 22 -20 5 0 1 9 -9 20 -10 11 -20 20
-22 20 -2 0 2 -9 9 -20z M4180 4875 c13 -14 26 -25 28 -25 3 0 -5 11 -18 25
-13 14 -26 25 -28 25 -3 0 5 -11 18 -25z M4765 4876 c10 -14 19 -26 22 -26 7
0 -17 39 -28 46 -6 3 -3 -5 6 -20z M4214 4833 c3 -6 -2 -16 -11 -22 -10 -6
-13 -10 -8 -11 6 0 17 5 25 10 13 8 13 11 1 22 -9 8 -12 9 -7 1z M4815 4796
c10 -14 19 -26 22 -26 7 0 -17 39 -28 46 -6 3 -3 -5 6 -20z M4180 4751 c0 -6
4 -13 10 -16 6 -3 7 1 4 9 -7 18 -14 21 -14 7z M4849 4742 c5 -10 18 -25 28
-33 12 -10 11 -5 -6 19 -24 35 -38 43 -22 14z M4218 4723 c7 -3 16 -2 19 1 4
3 -2 6 -13 5 -11 0 -14 -3 -6 -6z M4276 4713 c11 -2 28 -16 37 -31 9 -15 31
-43 49 -62 33 -37 25 -24 -31 53 -23 32 -42 47 -55 46 l-21 -2 21 -4z M4917
4653 c62 -84 125 -163 129 -163 3 0 -29 45 -71 100 -42 55 -78 100 -81 100 -3
0 8 -17 23 -37z M4412 4560 c7 -11 17 -20 22 -20 5 0 1 9 -9 20 -10 11 -20 20
-22 20 -2 0 2 -9 9 -20z M4480 4480 c17 -22 34 -40 37 -40 2 0 -10 18 -27 40
-17 22 -34 40 -37 40 -2 0 10 -18 27 -40z M5089 4423 c12 -18 24 -33 27 -33 9
0 -15 37 -33 51 -12 10 -11 5 6 -18z M4540 4405 c13 -14 26 -25 28 -25 3 0 -5
11 -18 25 -13 14 -26 25 -28 25 -3 0 5 -11 18 -25z M4609 4318 c17 -27 34 -48
37 -48 9 0 -30 61 -50 78 -11 9 -5 -4 13 -30z M5155 4321 c8 -17 19 -33 25
-36 5 -3 1 10 -11 29 -25 43 -36 48 -14 7z M5270 4155 c34 -49 69 -97 77 -105
22 -21 -96 150 -120 175 -10 11 9 -20 43 -70z M4685 4204 c10 -17 26 -41 37
-55 l20 -24 -17 31 c-10 17 -26 41 -37 55 l-20 24 17 -31z M4750 4100 c6 -11
13 -20 16 -20 2 0 0 9 -6 20 -6 11 -13 20 -16 20 -2 0 0 -9 6 -20z M5388 3993
c16 -21 40 -47 53 -58 13 -11 1 6 -26 38 -55 64 -73 77 -27 20z M4810 3965 c0
-5 5 -17 10 -25 5 -8 10 -10 10 -5 0 6 -5 17 -10 25 -5 8 -10 11 -10 5z M4851
3880 c14 -31 19 -36 19 -24 0 6 -7 19 -16 30 -14 18 -14 18 -3 -6z M5475 3890
c3 -5 11 -10 16 -10 6 0 7 5 4 10 -3 6 -11 10 -16 10 -6 0 -7 -4 -4 -10z
M5511 3863 c0 -5 17 -21 37 -37 l37 -30 -34 37 c-36 38 -42 42 -40 30z M4886
3807 c3 -10 9 -15 12 -12 3 3 0 11 -7 18 -10 9 -11 8 -5 -6z M5590 3797 c0 -3
23 -24 50 -47 28 -23 50 -40 50 -37 0 3 -22 24 -50 47 -27 23 -50 40 -50 37z
M4910 3755 c0 -5 5 -17 10 -25 5 -8 10 -10 10 -5 0 6 -5 17 -10 25 -5 8 -10
11 -10 5z M5735 3660 c19 -28 35 -57 35 -63 0 -6 3 -8 6 -4 8 7 -38 88 -61
107 -9 7 0 -11 20 -40z M4940 3675 c0 -5 5 -17 10 -25 5 -8 10 -10 10 -5 0 6
-5 17 -10 25 -5 8 -10 11 -10 5z M4981 3544 c0 -11 3 -14 6 -6 3 7 2 16 -1 19
-3 4 -6 -2 -5 -13z M5801 3515 c1 -19 18 -51 18 -35 0 8 -4 22 -9 30 -5 8 -9
11 -9 5z M4992 3480 c-1 -19 6 -53 14 -75 9 -22 19 -56 24 -75 7 -30 8 -31 9
-9 0 15 -6 46 -15 70 -8 24 -19 62 -24 84 l-8 40 0 -35z M5850 3365 c0 -5 5
-17 10 -25 5 -8 10 -10 10 -5 0 6 -5 17 -10 25 -5 8 -10 11 -10 5z M5870 3315
c0 -5 5 -17 10 -25 5 -8 10 -10 10 -5 0 6 -5 17 -10 25 -5 8 -10 11 -10 5z
M5892 3250 c0 -14 2 -19 5 -12 2 6 2 18 0 25 -3 6 -5 1 -5 -13z M5901 3210 c0
-8 4 -22 9 -30 12 -18 12 -2 0 25 -6 13 -9 15 -9 5z M5920 3152 c0 -8 28 -42
62 -75 33 -34 55 -53 47 -42 -8 11 -27 31 -43 44 -16 14 -37 39 -47 56 -11 16
-19 24 -19 17z M5140 3120 c40 -36 90 -73 90 -67 0 2 -28 25 -62 51 -35 26
-47 33 -28 16z M5265 3026 c30 -27 125 -81 125 -71 0 2 -19 14 -42 26 -24 12
-59 33 -78 47 l-35 24 30 -26z M6070 2995 c13 -14 26 -25 28 -25 3 0 -5 11
-18 25 -13 14 -26 25 -28 25 -3 0 5 -11 18 -25z M6114 2961 c7 -11 46 -35 46
-28 0 3 -12 12 -26 22 -15 9 -23 12 -20 6z M5430 2919 c19 -19 41 -43 48 -54
7 -11 6 -6 -3 12 -8 17 -29 41 -47 54 l-33 22 35 -34z M6235 2893 c6 -6 28
-20 50 -32 22 -13 31 -15 20 -6 -22 18 -86 53 -70 38z M6330 2836 c0 -2 7 -7
16 -10 8 -3 12 -2 9 4 -6 10 -25 14 -25 6z M6395 2795 c17 -13 34 -24 39 -25
6 0 -5 11 -24 25 -44 32 -54 32 -15 0z M5522 2730 c0 -14 2 -19 5 -12 2 6 2
18 0 25 -3 6 -5 1 -5 -13z M6460 2740 c0 -5 5 -10 11 -10 5 0 7 5 4 10 -3 6
-8 10 -11 10 -2 0 -4 -4 -4 -10z M6540 2653 c30 -32 56 -60 58 -63 3 -3 0 4
-6 15 -13 24 -89 105 -98 105 -4 0 17 -26 46 -57z M5532 2670 c0 -14 2 -19 5
-12 2 6 2 18 0 25 -3 6 -5 1 -5 -13z M5551 2584 c0 -11 3 -14 6 -6 3 7 2 16
-1 19 -3 4 -6 -2 -5 -13z M5563 2500 c0 -25 2 -35 4 -22 2 12 2 32 0 45 -2 12
-4 2 -4 -23z M6640 2500 c0 -5 10 -15 23 -21 22 -12 22 -12 3 10 -21 23 -26
26 -26 11z M5571 2414 c0 -11 3 -14 6 -6 3 7 2 16 -1 19 -3 4 -6 -2 -5 -13z
M6692 2400 c0 -14 2 -19 5 -12 2 6 2 18 0 25 -3 6 -5 1 -5 -13z M6703 2315 c0
-22 2 -30 4 -17 2 12 2 30 0 40 -3 9 -5 -1 -4 -23z M5592 2320 c0 -14 2 -19 5
-12 2 6 2 18 0 25 -3 6 -5 1 -5 -13z M5601 2274 c0 -11 3 -14 6 -6 3 7 2 16
-1 19 -3 4 -6 -2 -5 -13z M6693 2225 c0 -22 2 -30 4 -17 2 12 2 30 0 40 -3 9
-5 -1 -4 -23z M5611 2235 c0 -5 6 -21 14 -35 8 -14 14 -20 14 -15 0 6 -6 21
-14 35 -8 14 -14 21 -14 15z M5640 2165 c0 -5 10 -21 21 -35 13 -17 17 -18 10
-5 -17 33 -31 51 -31 40z M6681 2124 c0 -11 3 -14 6 -6 3 7 2 16 -1 19 -3 4
-6 -2 -5 -13z M6672 2080 c0 -14 2 -19 5 -12 2 6 2 18 0 25 -3 6 -5 1 -5 -13z
M5700 2060 c6 -11 13 -20 16 -20 2 0 0 9 -6 20 -6 11 -13 20 -16 20 -2 0 0 -9
6 -20z M6646 2005 c-9 -26 -7 -32 5 -12 6 10 9 21 6 23 -2 3 -7 -2 -11 -11z
M5740 1995 c0 -5 5 -17 10 -25 5 -8 10 -10 10 -5 0 6 -5 17 -10 25 -5 8 -10
11 -10 5z M5785 1941 c19 -23 75 -66 75 -59 0 2 -21 21 -47 43 -27 21 -39 28
-28 16z M5919 1841 c13 -12 28 -21 34 -21 12 0 11 0 -28 24 l-30 17 24 -20z
M6554 1828 l-19 -23 23 19 c21 18 27 26 19 26 -2 0 -12 -10 -23 -22z M6026
1796 c50 -22 82 -27 39 -7 -22 11 -47 20 -55 20 -8 0 -1 -6 16 -13z M6500
1795 c-14 -8 -20 -14 -14 -15 5 0 19 7 30 15 24 18 16 19 -16 0z M6128 1763
c6 -2 18 -2 25 0 6 3 1 5 -13 5 -14 0 -19 -2 -12 -5z M6418 1763 c7 -3 16 -2
19 1 4 3 -2 6 -13 5 -11 0 -14 -3 -6 -6z M6193 1753 c9 -2 25 -2 35 0 9 3 1 5
-18 5 -19 0 -27 -2 -17 -5z M6358 1753 c6 -2 18 -2 25 0 6 3 1 5 -13 5 -14 0
-19 -2 -12 -5z"/>
</g>
<g transform="translate(0.000000,1128.000000) scale(0.100000,-0.100000)" fill="#7a8088" stroke="none">
<path d="M1818 9613 c7 -3 16 -2 19 1 4 3 -2 6 -13 5 -11 0 -14 -3 -6 -6z
M1791 9594 c0 -11 3 -14 6 -6 3 7 2 16 -1 19 -3 4 -6 -2 -5 -13z M1852 9573
c-44 -9 -46 -38 -7 -103 20 -33 39 -60 42 -60 3 0 -2 11 -11 25 -31 47 -16 35
41 -32 32 -38 63 -74 71 -82 7 -8 21 -26 30 -40 8 -14 62 -96 118 -181 100
-152 164 -259 164 -274 0 -4 -6 -4 -12 0 -7 4 2 -6 20 -23 29 -28 37 -43 33
-65 0 -5 4 -8 9 -8 5 0 9 -4 7 -8 -1 -4 22 -44 52 -89 l54 -81 25 23 25 23
-35 59 c-20 32 -57 99 -84 148 -27 50 -53 97 -59 106 -5 9 -21 36 -34 60 -13
24 -41 70 -63 101 -22 31 -37 61 -33 67 3 6 -5 22 -19 36 -15 14 -26 30 -26
35 0 4 -4 10 -8 12 -5 2 -46 55 -92 118 -45 63 -90 121 -98 128 -9 6 -12 12
-6 12 5 1 -7 15 -26 32 -19 17 -28 27 -20 23 8 -5 4 4 -9 18 -14 15 -25 26
-25 26 -1 -1 -11 -4 -24 -6z M1630 9486 c0 -2 9 -6 20 -9 11 -3 18 -1 14 4 -5
9 -34 13 -34 5z M1604 9465 c-3 -8 -4 -20 -2 -27 3 -7 7 -1 10 15 6 29 1 36
-8 12z M1690 9426 c0 -2 8 -10 18 -17 15 -13 16 -12 3 4 -13 16 -21 21 -21 13z
M1610 9414 c0 -6 7 -19 16 -30 14 -18 14 -18 3 6 -14 31 -19 36 -19 24z M1905
9376 c10 -14 19 -26 22 -26 7 0 -17 39 -28 46 -6 3 -3 -5 6 -20z M1397 9342
c-10 -10 -16 -29 -16 -43 1 -21 2 -20 8 6 3 17 16 35 31 42 16 8 19 13 9 13
-9 0 -23 -8 -32 -18z M1450 9341 c0 -5 7 -12 16 -15 14 -5 15 -4 4 9 -14 17
-20 19 -20 6z M1770 9310 c11 -16 26 -33 32 -36 7 -4 -1 9 -16 29 -34 44 -46
50 -16 7z M1546 9212 c10 -19 32 -48 47 -65 21 -24 19 -18 -9 23 -46 67 -63
86 -38 42z M1713 9233 c33 -53 236 -381 315 -510 86 -139 162 -254 137 -206
-3 8 4 15 19 19 16 4 23 12 21 23 -2 9 -37 69 -79 134 -42 64 -76 119 -76 122
0 4 -13 25 -28 48 -16 23 -46 74 -67 112 -21 39 -60 103 -87 143 -48 70 -71
85 -95 61 -7 -7 -17 0 -33 25 -12 20 -24 36 -26 36 -3 0 -3 -3 -1 -7z M2020
9210 c12 -16 24 -30 26 -30 3 0 -4 14 -16 30 -12 17 -24 30 -26 30 -3 0 4 -13
16 -30z M1210 9210 c-8 -5 -12 -12 -9 -15 4 -3 12 1 19 10 14 17 11 19 -10 5z
M1241 9217 c2 -1 13 -9 24 -17 19 -14 19 -14 6 3 -7 9 -18 17 -24 17 -6 0 -8
-1 -6 -3z M1295 9156 c10 -14 19 -26 22 -26 7 0 -17 39 -28 46 -6 3 -3 -5 6
-20z M2050 9166 c0 -2 8 -10 18 -17 15 -13 16 -12 3 4 -13 16 -21 21 -21 13z
M1895 9140 c10 -11 20 -20 23 -20 3 0 -3 9 -13 20 -10 11 -20 20 -23 20 -3 0
3 -9 13 -20z M1245 9110 c-4 -6 -11 -8 -16 -5 -11 8 -2 -18 26 -70 117 -215
168 -305 176 -305 4 0 5 -7 2 -17 -5 -12 -3 -14 7 -8 10 6 12 4 7 -9 -4 -10
-3 -15 3 -11 5 3 16 -9 25 -27 l16 -33 -21 25 -21 25 21 -42 c20 -43 35 -58
23 -25 -10 28 2 12 61 -82 53 -85 74 -132 40 -90 -11 14 -11 11 2 -13 10 -18
21 -30 25 -28 4 3 6 -3 5 -13 0 -9 5 -16 12 -14 8 1 11 -2 7 -7 -8 -14 49
-103 60 -94 4 5 5 3 1 -4 -4 -7 9 -36 27 -65 79 -123 185 -295 201 -326 10
-18 64 -104 122 -192 78 -119 104 -166 104 -190 0 -23 11 -46 35 -76 68 -82
74 -85 103 -56 11 11 40 22 67 25 26 4 54 12 61 18 7 6 22 8 34 4 13 -4 22 -1
26 9 7 17 59 46 83 46 9 0 24 9 34 20 9 11 29 20 45 20 34 0 52 16 52 47 0 32
-23 38 -57 15 -15 -11 -53 -23 -83 -27 -30 -3 -60 -11 -67 -17 -7 -5 -18 -8
-25 -5 -7 2 -26 -2 -41 -10 -15 -8 -32 -11 -36 -8 -5 3 -32 0 -60 -6 -36 -7
-55 -7 -70 1 -16 8 -21 8 -21 -2 -1 -9 -5 -7 -14 4 -7 10 -26 22 -42 29 -29
11 -29 11 -6 20 33 13 27 38 -30 125 -148 223 -270 423 -381 624 -43 80 -122
218 -175 308 -86 144 -99 162 -123 162 -15 0 -32 7 -39 15 -7 8 -9 15 -6 15 4
0 -6 19 -22 43 -16 23 -46 73 -66 110 -20 38 -44 80 -53 93 -14 23 -14 26 2
44 9 10 14 24 10 29 -8 14 -42 14 -50 1z M1497 9108 c4 -7 22 -37 40 -67 18
-30 33 -50 33 -45 0 11 -69 124 -76 124 -3 0 -2 -6 3 -12z M2260 9085 c19 -22
36 -42 38 -44 1 -2 4 -2 7 0 2 3 -14 23 -38 45 l-42 39 35 -40z M1920 9106 c0
-2 8 -10 18 -17 15 -13 16 -12 3 4 -13 16 -21 21 -21 13z M1375 9036 c10 -14
19 -26 22 -26 7 0 -17 39 -28 46 -6 3 -3 -5 6 -20z M1586 9045 c-11 -12 -14
-40 -6 -85 0 -3 5 2 11 10 9 12 10 11 6 -8 -3 -12 -1 -20 3 -17 7 5 110 -136
110 -150 0 -11 167 -284 203 -332 41 -55 69 -66 86 -35 8 14 -8 45 -78 153
-48 73 -101 159 -117 189 -16 30 -32 57 -35 60 -3 3 -12 16 -19 30 -25 49
-122 189 -136 194 -7 3 -20 -1 -28 -9z M1980 9021 c5 -11 15 -23 21 -27 6 -3
3 5 -6 20 -20 30 -30 35 -15 7z M1705 8986 c10 -14 19 -26 22 -26 7 0 -17 39
-28 46 -6 3 -3 -5 6 -20z M2330 8997 c0 -2 15 -16 33 -33 l32 -29 -29 33 c-28
30 -36 37 -36 29z M2185 8970 c3 -5 8 -10 11 -10 2 0 4 5 4 10 0 6 -5 10 -11
10 -5 0 -7 -4 -4 -10z M1435 8944 c10 -17 26 -41 37 -55 l20 -24 -17 31 c-10
17 -26 41 -37 55 l-20 24 17 -31z M2039 8935 c5 -11 17 -29 26 -40 l16 -20
-10 20 c-5 11 -17 29 -26 40 l-16 20 10 -20z M1623 8891 c12 -22 23 -38 25
-36 5 5 -26 63 -37 69 -5 4 0 -12 12 -33z M2405 8906 c10 -14 19 -26 22 -26 7
0 -17 39 -28 46 -6 3 -3 -5 6 -20z M1760 8901 c5 -11 15 -23 21 -27 6 -3 3 5
-6 20 -20 30 -30 35 -15 7z M2235 8896 c10 -14 19 -26 22 -26 7 0 -17 39 -28
46 -6 3 -3 -5 6 -20z M1500 8840 c6 -11 13 -20 16 -20 2 0 0 9 -6 20 -6 11
-13 20 -16 20 -2 0 0 -9 6 -20z M2460 8836 c0 -2 8 -10 18 -17 15 -13 16 -12
3 4 -13 16 -21 21 -21 13z M1839 8785 c5 -11 17 -29 26 -40 l16 -20 -10 20
c-5 11 -17 29 -26 40 l-16 20 10 -20z M2140 8771 c5 -11 15 -23 21 -27 6 -3 3
5 -6 20 -20 30 -30 35 -15 7z M2500 8786 c0 -2 8 -10 18 -17 15 -13 16 -12 3
4 -13 16 -21 21 -21 13z M1570 8730 c6 -11 13 -20 16 -20 2 0 0 9 -6 20 -6 11
-13 20 -16 20 -2 0 0 -9 6 -20z M2550 8725 c13 -14 26 -25 28 -25 3 0 -5 11
-18 25 -13 14 -26 25 -28 25 -3 0 5 -11 18 -25z M1895 8696 c10 -14 19 -26 22
-26 7 0 -17 39 -28 46 -6 3 -3 -5 6 -20z M2610 8646 c16 -25 35 -48 41 -52 6
-3 -6 17 -26 45 -45 63 -58 68 -15 7z M1755 8653 c8 -18 18 -33 20 -33 10 0 4
16 -16 40 l-20 25 16 -32z M1630 8630 c0 -5 5 -10 11 -10 5 0 7 5 4 10 -3 6
-8 10 -11 10 -2 0 -4 -4 -4 -10z M2269 8582 c11 -16 28 -35 38 -43 9 -8 2 5
-17 29 -38 48 -52 57 -21 14z M1969 8585 c5 -11 17 -29 26 -40 l16 -20 -10 20
c-5 11 -17 29 -26 40 l-16 20 10 -20z M2680 8550 c11 -16 26 -33 32 -36 7 -4
-1 9 -16 29 -34 44 -46 50 -16 7z M1519 8545 c5 -11 17 -29 26 -40 l16 -20
-10 20 c-5 11 -17 29 -26 40 l-16 20 10 -20z M1820 8540 c6 -11 13 -20 16 -20
2 0 0 9 -6 20 -6 11 -13 20 -16 20 -2 0 0 -9 6 -20z M2025 8496 c10 -14 19
-26 22 -26 7 0 -17 39 -28 46 -6 3 -3 -5 6 -20z M2340 8490 c12 -16 24 -30 26
-30 3 0 -4 14 -16 30 -12 17 -24 30 -26 30 -3 0 4 -13 16 -30z M2767 8430 c28
-41 61 -84 74 -95 12 -11 -4 16 -35 60 -78 108 -100 128 -39 35z M2207 8435
c9 -19 18 -33 21 -31 4 5 -26 66 -33 66 -3 0 3 -16 12 -35z M1767 8438 c6 -7
31 -41 57 -75 26 -34 52 -65 57 -69 6 -3 -17 30 -51 75 -34 45 -65 81 -67 81
-3 0 -1 -6 4 -12z M2549 8415 c5 -11 17 -29 26 -40 l16 -20 -10 20 c-5 11 -17
29 -26 40 l-16 20 10 -20z M2414 8387 c16 -20 30 -37 33 -37 7 0 -36 58 -49
66 -7 4 1 -9 16 -29z M1929 8375 c5 -11 17 -29 26 -40 l16 -20 -10 20 c-5 11
-17 29 -26 40 l-16 20 10 -20z M2261 8340 c14 -31 19 -36 19 -24 0 6 -7 19
-16 30 -14 18 -14 18 -3 -6z M2150 8310 c11 -16 26 -33 32 -36 7 -4 -1 9 -16
29 -34 44 -46 50 -16 7z M2480 8296 c16 -25 35 -48 41 -52 6 -3 -6 17 -26 45
-45 63 -58 68 -15 7z M1990 8269 c12 -23 24 -39 26 -36 5 5 -35 77 -42 77 -3
0 5 -18 16 -41z M2869 8292 c5 -9 19 -26 32 -37 19 -16 18 -13 -5 18 -30 39
-43 49 -27 19z M1890 8276 c0 -2 8 -10 18 -17 15 -13 16 -12 3 4 -13 16 -21
21 -21 13z M2310 8250 c6 -11 13 -20 16 -20 2 0 0 9 -6 20 -6 11 -13 20 -16
20 -2 0 0 -9 6 -20z M2530 8226 c0 -2 8 -10 18 -17 15 -13 16 -12 3 4 -13 16
-21 21 -21 13z M2940 8200 c12 -16 24 -30 26 -30 3 0 -4 14 -16 30 -12 17 -24
30 -26 30 -3 0 4 -13 16 -30z M1955 8190 c10 -11 20 -20 23 -20 3 0 -3 9 -13
20 -10 11 -20 20 -23 20 -3 0 3 -9 13 -20z M2250 8170 c12 -16 24 -30 26 -30
3 0 -4 14 -16 30 -12 17 -24 30 -26 30 -3 0 4 -13 16 -30z M2050 8170 c6 -11
13 -20 16 -20 2 0 0 9 -6 20 -6 11 -13 20 -16 20 -2 0 0 -9 6 -20z M2375 8160
c10 -11 20 -20 23 -20 3 0 -3 9 -13 20 -10 11 -20 20 -23 20 -3 0 3 -9 13 -20z
M1980 8156 c0 -2 8 -10 18 -17 15 -13 16 -12 3 4 -13 16 -21 21 -21 13z M2731
8116 c12 -20 23 -36 25 -36 7 0 -25 58 -36 65 -5 3 -1 -10 11 -29z M2085 8116
c10 -14 19 -26 22 -26 7 0 -17 39 -28 46 -6 3 -3 -5 6 -20z M2456 8055 c48
-63 59 -75 46 -50 -6 11 -27 38 -47 60 l-37 40 38 -50z M3030 8071 c5 -11 15
-23 21 -27 6 -3 3 5 -6 20 -20 30 -30 35 -15 7z M2355 8016 c10 -14 19 -26 22
-26 7 0 -17 39 -28 46 -6 3 -3 -5 6 -20z M2685 8008 c78 -86 112 -120 130
-130 11 -6 -2 9 -30 34 -27 25 -63 64 -80 87 -16 22 -34 41 -39 41 -6 0 3 -15
19 -32z M2795 8010 c9 -16 18 -30 21 -30 2 0 -2 14 -11 30 -9 17 -18 30 -21
30 -2 0 2 -13 11 -30z M2100 7986 c19 -26 39 -50 44 -54 5 -3 -6 16 -24 42
-19 26 -39 50 -44 54 -5 3 6 -16 24 -42z M2380 7976 c0 -2 8 -10 18 -17 15
-13 16 -12 3 4 -13 16 -21 21 -21 13z M2510 7976 c0 -2 8 -10 18 -17 15 -13
16 -12 3 4 -13 16 -21 21 -21 13z M2820 7965 c0 -5 5 -17 10 -25 5 -8 10 -10
10 -5 0 6 -5 17 -10 25 -5 8 -10 11 -10 5z M2205 7936 c10 -14 19 -26 22 -26
7 0 -17 39 -28 46 -6 3 -3 -5 6 -20z M2568 7903 c16 -21 34 -47 40 -58 6 -11
12 -15 12 -9 0 12 -67 104 -76 104 -3 0 7 -17 24 -37z M2430 7906 c0 -2 8 -10
18 -17 15 -13 16 -12 3 4 -13 16 -21 21 -21 13z M2230 7896 c0 -2 8 -10 18
-17 15 -13 16 -12 3 4 -13 16 -21 21 -21 13z M2196 7852 c10 -18 30 -43 43
-55 14 -13 8 -1 -14 28 -47 63 -53 69 -29 27z M2500 7828 c24 -27 45 -48 47
-48 8 0 0 9 -44 50 l-48 45 45 -47z M2296 7810 c46 -67 64 -87 38 -42 -10 19
-32 48 -47 65 -20 23 -18 17 9 -23z M3180 7846 c0 -2 8 -10 18 -17 15 -13 16
-12 3 4 -13 16 -21 21 -21 13z M3210 7806 c0 -2 8 -10 18 -17 15 -13 16 -12 3
4 -13 16 -21 21 -21 13z M2277 7744 c48 -68 144 -135 126 -88 -5 13 -7 13 -14
2 -6 -10 -25 4 -71 52 -34 36 -52 51 -41 34z M3236 7745 c-4 -14 4 -52 19 -94
29 -81 44 -194 26 -205 -6 -4 -11 -24 -11 -45 0 -34 6 -44 50 -81 62 -53 68
-81 46 -204 -31 -174 -19 -266 36 -266 27 0 28 1 28 56 0 30 -4 53 -9 50 -5
-4 -8 2 -6 11 2 10 12 70 22 133 16 100 19 110 24 75 l6 -40 2 43 c0 23 -2 42
-6 42 -5 0 -8 15 -9 34 -1 41 -27 84 -59 96 -12 5 -27 15 -31 22 -5 9 -2 8 12
-2 19 -14 19 -14 0 8 -16 19 -20 39 -21 115 -1 80 -6 103 -36 176 -24 59 -41
86 -56 92 -17 6 -22 3 -27 -16z m185 -422 c13 -16 12 -17 -3 -4 -10 7 -18 15
-18 17 0 8 8 3 21 -13z M2600 7750 c8 -5 20 -10 25 -10 6 0 3 5 -5 10 -8 5
-19 10 -25 10 -5 0 -3 -5 5 -10z M2280 7325 c0 -5 12 -27 28 -49 60 -89 156
-188 209 -216 l38 -20 -30 22 c-52 39 -179 171 -212 222 -18 27 -33 46 -33 41z
M3452 7090 c0 -14 2 -19 5 -12 2 6 2 18 0 25 -3 6 -5 1 -5 -13z M3441 7044 c0
-11 3 -14 6 -6 3 7 2 16 -1 19 -3 4 -6 -2 -5 -13z M2637 7014 c16 -4 23 -14
26 -37 4 -31 5 -31 3 3 -1 30 -5 35 -26 37 -21 1 -21 0 -3 -3z M3432 7000 c0
-14 2 -19 5 -12 2 6 2 18 0 25 -3 6 -5 1 -5 -13z M2670 6925 c0 -5 10 -21 21
-35 13 -17 17 -18 10 -5 -17 33 -31 51 -31 40z M2750 6846 c0 -3 9 -10 20 -16
11 -6 20 -8 20 -6 0 3 -9 10 -20 16 -11 6 -20 8 -20 6z M2978 6763 c6 -2 18
-2 25 0 6 3 1 5 -13 5 -14 0 -19 -2 -12 -5z M3048 6753 c7 -3 16 -2 19 1 4 3
-2 6 -13 5 -11 0 -14 -3 -6 -6z M3088 6743 c7 -3 16 -2 19 1 4 3 -2 6 -13 5
-11 0 -14 -3 -6 -6z M3175 6700 c10 -11 20 -20 23 -20 3 0 -3 9 -13 20 -10 11
-20 20 -23 20 -3 0 3 -9 13 -20z M3227 6639 c12 -12 24 -21 27 -18 2 2 -8 13
-22 23 l-27 19 22 -24z M3610 6471 c0 -6 4 -13 10 -16 6 -3 7 1 4 9 -7 18 -14
21 -14 7z M3715 6300 c26 -48 115 -173 158 -223 27 -32 98 -98 156 -148 58
-49 75 -62 36 -27 -133 119 -214 208 -276 300 -57 86 -94 135 -74 98z M3617
6158 c-27 -15 -20 -40 31 -119 27 -41 64 -110 82 -154 19 -44 42 -88 53 -97
20 -19 24 -18 97 23 8 5 32 18 53 29 45 25 56 46 33 68 -13 14 -21 14 -49 4
-71 -26 -125 -7 -147 51 -17 44 -112 196 -125 201 -6 2 -19 0 -28 -6z M3610
6030 c6 -11 13 -20 16 -20 2 0 0 9 -6 20 -6 11 -13 20 -16 20 -2 0 0 -9 6 -20z
M3945 5778 c-61 -31 -125 -87 -125 -108 0 -16 26 -40 44 -40 3 0 22 16 43 35
21 19 57 45 81 56 49 24 60 42 42 64 -17 20 -37 18 -85 -7z M3732 5735 c0 -16
2 -22 5 -12 2 9 2 23 0 30 -3 6 -5 -1 -5 -18z M3750 5647 l5 -52 3 44 c2 24 0
47 -5 52 -4 4 -6 -15 -3 -44z M4210 5675 c13 -14 26 -25 28 -25 3 0 -5 11 -18
25 -13 14 -26 25 -28 25 -3 0 5 -11 18 -25z M4346 5616 c10 -8 21 -12 24 -10
5 6 -21 24 -34 24 -6 0 -1 -6 10 -14z M4124 5578 c-22 -50 -59 -72 -124 -73
-54 -2 -70 -9 -70 -34 0 -50 77 -58 167 -16 63 29 78 44 93 96 13 46 4 69 -24
69 -17 0 -28 -11 -42 -42z M4280 5586 c7 -7 13 -7 20 0 6 6 3 10 -10 10 -13 0
-16 -4 -10 -10z M3826 5518 c10 -14 21 -24 23 -22 3 3 -6 15 -18 27 l-24 22
19 -27z M4380 5470 c8 -5 20 -10 25 -10 6 0 3 5 -5 10 -8 5 -19 10 -25 10 -5
0 -3 -5 5 -10z M4116 5443 c-55 -31 -72 -52 -63 -77 4 -11 18 -16 43 -16 25 0
43 -7 55 -21 11 -12 27 -19 41 -17 22 3 23 7 23 78 0 73 -1 75 -25 78 -14 1
-47 -10 -74 -25z M4465 5438 c11 -6 29 -18 40 -27 12 -9 8 -4 -7 12 -16 15
-34 27 -41 27 -6 0 -3 -6 8 -12z M4536 5367 c3 -10 9 -15 12 -12 3 3 0 11 -7
18 -10 9 -11 8 -5 -6z M3892 5320 c-2 -34 1 -39 28 -48 37 -13 40 -5 4 8 -23
9 -26 15 -21 40 4 16 3 31 -1 34 -4 2 -8 -13 -10 -34z M4277 5293 c-20 -19 -4
-45 37 -62 23 -11 59 -33 79 -51 42 -37 71 -36 75 1 7 56 -154 150 -191 112z
M4572 5230 c0 -14 2 -19 5 -12 2 6 2 18 0 25 -3 6 -5 1 -5 -13z M4176 5198
c-22 -31 -21 -124 2 -168 13 -26 23 -35 42 -35 23 0 25 3 22 35 -2 19 -5 64
-6 100 -1 36 -5 71 -9 78 -12 19 -34 14 -51 -10z M3981 5194 c0 -11 3 -14 6
-6 3 7 2 16 -1 19 -3 4 -6 -2 -5 -13z M4610 5151 c5 -11 15 -23 21 -27 6 -3 3
5 -6 20 -20 30 -30 35 -15 7z M3991 5124 c0 -11 3 -14 6 -6 3 7 2 16 -1 19 -3
4 -6 -2 -5 -13z M4658 5083 c13 -18 29 -49 37 -70 7 -21 14 -32 14 -24 1 21
-37 97 -57 113 -10 8 -8 1 6 -19z M4380 5073 c-61 -22 -47 -133 16 -133 46 0
64 17 64 60 0 30 -6 43 -26 59 -28 22 -30 23 -54 14z M4077 4990 c23 -24 44
-42 47 -40 2 3 -17 23 -42 44 l-47 39 42 -43z M4577 4953 c-13 -12 -7 -47 12
-67 10 -12 24 -50 30 -85 9 -55 17 -70 58 -115 57 -61 154 -200 384 -549 124
-189 192 -281 251 -343 99 -103 202 -187 247 -203 48 -16 96 -14 112 5 11 14
10 19 -10 35 -13 11 -36 19 -51 19 -60 0 -265 187 -371 338 -35 50 -86 126
-114 169 -110 174 -315 480 -341 513 -16 19 -43 50 -60 70 -22 24 -34 50 -39
85 -8 56 -18 80 -48 113 -20 22 -47 29 -60 15z M4150 4925 c8 -11 24 -31 36
-45 13 -14 30 -38 38 -55 9 -16 16 -23 16 -15 0 9 -18 38 -41 65 -45 55 -71
82 -49 50z M4733 4919 c7 -20 95 -159 102 -159 3 0 -15 30 -38 68 -24 37 -49
76 -56 87 -7 12 -10 13 -8 4z M4393 4833 c-16 -6 -17 -59 -3 -68 6 -4 8 -16 4
-28 -3 -12 -3 -19 0 -16 4 4 26 -11 49 -32 23 -22 52 -42 64 -45 19 -5 20 -9
10 -25 -10 -15 -9 -24 3 -43 22 -36 90 -141 129 -199 19 -29 69 -108 111 -177
128 -209 161 -262 218 -350 116 -178 187 -367 180 -485 -3 -45 -1 -50 19 -53
26 -4 53 31 53 68 0 45 -39 208 -67 278 -14 37 -52 108 -83 157 -147 235 -201
320 -224 358 -10 16 -16 31 -13 33 3 3 16 -14 30 -38 14 -24 33 -52 42 -63 28
-35 162 -241 216 -332 53 -90 120 -235 133 -286 4 -16 40 -61 84 -105 43 -42
103 -115 134 -162 61 -93 202 -292 250 -353 36 -45 71 -48 76 -6 2 19 -15 54
-58 120 -34 52 -73 117 -87 144 -14 28 -49 91 -79 140 -67 114 -134 253 -134
277 0 10 -46 67 -101 126 -97 102 -157 179 -207 262 -13 22 -31 42 -40 45 -36
12 -358 498 -445 671 -26 52 -44 64 -99 64 -32 0 -79 40 -106 90 -18 34 -35
44 -59 33z m207 -242 c0 -11 -4 -10 -15 5 -8 10 -14 26 -14 34 0 11 3 10 14
-4 8 -11 15 -27 15 -35z M4180 4777 c0 -16 21 -47 33 -47 8 0 9 3 1 8 -6 4
-16 16 -22 27 -6 11 -12 16 -12 12z M4248 4723 c6 -2 18 -2 25 0 6 3 1 5 -13
5 -14 0 -19 -2 -12 -5z M4865 4710 c10 -11 20 -20 23 -20 3 0 -3 9 -13 20 -10
11 -20 20 -23 20 -3 0 3 -9 13 -20z M4890 4676 c0 -2 8 -10 18 -17 15 -13 16
-12 3 4 -13 16 -21 21 -21 13z M4378 4613 c11 -16 30 -37 43 -48 12 -11 5 1
-16 28 -43 52 -57 63 -27 20z M4955 4590 c10 -11 20 -20 23 -20 3 0 -3 9 -13
20 -10 11 -20 20 -23 20 -3 0 3 -9 13 -20z M4460 4515 c13 -14 26 -25 28 -25
3 0 -5 11 -18 25 -13 14 -26 25 -28 25 -3 0 5 -11 18 -25z M5020 4506 c0 -2 8
-10 18 -17 15 -13 16 -12 3 4 -13 16 -21 21 -21 13z M4535 4420 c10 -11 20
-20 22 -20 2 0 -2 9 -9 20 -7 11 -17 20 -22 20 -5 0 -1 -9 9 -20z M5125 4354
c18 -30 46 -70 60 -87 l27 -32 -24 35 c-13 19 -36 56 -51 82 -15 26 -31 50
-37 53 -5 3 6 -20 25 -51z M4590 4355 c13 -14 26 -25 28 -25 3 0 -5 11 -18 25
-13 14 -26 25 -28 25 -3 0 5 -11 18 -25z M4650 4270 c6 -11 13 -20 16 -20 2 0
0 9 -6 20 -6 11 -13 20 -16 20 -2 0 0 -9 6 -20z M4685 4216 c10 -14 19 -26 22
-26 7 0 -17 39 -28 46 -6 3 -3 -5 6 -20z M5210 4226 c0 -2 8 -10 18 -17 15
-13 16 -12 3 4 -13 16 -21 21 -21 13z M4739 4135 c17 -33 31 -51 31 -40 0 6
-10 21 -21 35 -13 17 -17 18 -10 5z M5296 4102 c10 -18 30 -43 43 -55 18 -16
16 -10 -9 23 -46 61 -56 71 -34 32z M5360 4016 c0 -2 8 -10 18 -17 15 -13 16
-12 3 4 -13 16 -21 21 -21 13z M5425 3940 c21 -22 41 -40 44 -40 3 0 -13 18
-34 40 -21 22 -41 40 -44 40 -3 0 13 -18 34 -40z M4827 3939 c4 -13 8 -18 11
-10 2 7 -1 18 -6 23 -8 8 -9 4 -5 -13z M5480 3876 c0 -2 7 -7 16 -10 8 -3 12
-2 9 4 -6 10 -25 14 -25 6z M5565 3805 c51 -47 182 -151 155 -123 -8 9 -58 50
-110 92 -52 43 -72 56 -45 31z M4900 3795 c0 -5 5 -17 10 -25 5 -8 10 -10 10
-5 0 6 -5 17 -10 25 -5 8 -10 11 -10 5z M5760 3605 c0 -5 5 -17 10 -25 5 -8
10 -10 10 -5 0 6 -5 17 -10 25 -5 8 -10 11 -10 5z M4991 3524 c0 -11 3 -14 6
-6 3 7 2 16 -1 19 -3 4 -6 -2 -5 -13z M5643 3523 c-28 -11 -11 -144 32 -249
26 -63 43 -81 69 -71 22 9 20 37 -9 109 -14 34 -28 94 -32 133 -7 79 -19 95
-60 78z M5001 3475 c0 -11 4 -29 9 -40 l9 -20 0 20 c0 11 -4 29 -9 40 l-9 20
0 -20z M5821 3430 c0 -8 4 -22 9 -30 12 -18 12 -2 0 25 -6 13 -9 15 -9 5z
M5041 3294 c0 -11 3 -14 6 -6 3 7 2 16 -1 19 -3 4 -6 -2 -5 -13z M5881 3264
c0 -11 3 -14 6 -6 3 7 2 16 -1 19 -3 4 -6 -2 -5 -13z M5051 3265 c0 -5 6 -21
14 -35 8 -14 14 -20 14 -15 0 6 -6 21 -14 35 -8 14 -14 21 -14 15z M5221 3246
c-20 -24 -8 -40 51 -73 59 -34 95 -66 148 -132 29 -36 40 -42 58 -37 34 11 27
47 -20 102 -103 118 -205 179 -237 140z M5900 3185 c0 -5 5 -17 10 -25 5 -8
10 -10 10 -5 0 6 -5 17 -10 25 -5 8 -10 11 -10 5z M5120 3145 c13 -14 26 -25
28 -25 3 0 -5 11 -18 25 -13 14 -26 25 -28 25 -3 0 5 -11 18 -25z M5970 3078
c41 -45 50 -53 50 -45 0 2 -21 23 -47 47 l-48 45 45 -47z M5170 3106 c0 -2 8
-10 18 -17 15 -13 16 -12 3 4 -13 16 -21 21 -21 13z M5210 3076 c0 -2 8 -10
18 -17 15 -13 16 -12 3 4 -13 16 -21 21 -21 13z M5290 3016 c0 -3 14 -12 30
-21 17 -9 30 -13 30 -11 0 3 -13 12 -30 21 -16 9 -30 13 -30 11z M6040 3016
c0 -2 8 -10 18 -17 15 -13 16 -12 3 4 -13 16 -21 21 -21 13z M6100 2966 c0 -2
8 -10 18 -17 15 -13 16 -12 3 4 -13 16 -21 21 -21 13z M6140 2935 c0 -2 23
-16 50 -30 28 -14 50 -23 50 -20 0 2 -22 16 -50 30 -27 14 -50 23 -50 20z
M5476 2877 c3 -10 9 -15 12 -12 3 3 0 11 -7 18 -10 9 -11 8 -5 -6z M6250 2876
c0 -3 9 -10 20 -16 11 -6 20 -8 20 -6 0 3 -9 10 -20 16 -11 6 -20 8 -20 6z
M6120 2832 c-23 -7 -60 -44 -76 -74 -8 -15 -14 -51 -14 -81 0 -71 14 -83 91
-79 112 7 205 -67 279 -221 48 -101 53 -168 19 -247 -23 -53 -55 -83 -136
-124 -64 -32 -120 -34 -214 -5 -84 25 -145 82 -189 174 -62 130 -66 226 -11
275 38 35 39 50 5 83 -28 28 -93 43 -141 33 -36 -8 -85 -53 -81 -73 6 -32 33
-38 66 -15 27 20 82 31 82 17 0 -3 -8 -18 -17 -32 -27 -42 -25 -180 5 -256 29
-76 89 -164 146 -214 72 -63 219 -97 319 -74 48 11 153 74 189 113 45 50 71
137 66 221 -6 99 -68 224 -153 312 -74 76 -107 94 -190 102 -56 5 -65 9 -65
26 0 10 14 36 30 57 17 21 30 45 30 53 0 20 -21 35 -40 29z M6430 2766 c0 -2
8 -10 18 -17 15 -13 16 -12 3 4 -13 16 -21 21 -21 13z M5532 2710 c0 -14 2
-19 5 -12 2 6 2 18 0 25 -3 6 -5 1 -5 -13z M6460 2726 c0 -2 7 -7 16 -10 8 -3
12 -2 9 4 -6 10 -25 14 -25 6z M6525 2660 c10 -11 20 -20 23 -20 3 0 -3 9 -13
20 -10 11 -20 20 -23 20 -3 0 3 -9 13 -20z M5541 2654 c0 -11 3 -14 6 -6 3 7
2 16 -1 19 -3 4 -6 -2 -5 -13z M5551 2614 c0 -11 3 -14 6 -6 3 7 2 16 -1 19
-3 4 -6 -2 -5 -13z M5562 2565 c0 -16 2 -22 5 -12 2 9 2 23 0 30 -3 6 -5 -1
-5 -18z M6617 2535 c9 -19 18 -33 21 -31 4 5 -26 66 -33 66 -3 0 3 -16 12 -35z
M6052 2483 c-67 -33 -91 -94 -72 -184 16 -75 55 -130 112 -158 56 -27 93 -26
143 2 92 52 113 156 53 257 -55 91 -152 125 -236 83z M5572 2460 c0 -19 2 -27
5 -17 2 9 2 25 0 35 -3 9 -5 1 -5 -18z M6666 2467 c3 -10 9 -15 12 -12 3 3 0
11 -7 18 -10 9 -11 8 -5 -6z M6681 2424 c0 -11 3 -14 6 -6 3 7 2 16 -1 19 -3
4 -6 -2 -5 -13z M5582 2400 c0 -14 2 -19 5 -12 2 6 2 18 0 25 -3 6 -5 1 -5
-13z M6692 2360 c0 -14 2 -19 5 -12 2 6 2 18 0 25 -3 6 -5 1 -5 -13z M6692
2285 c0 -16 2 -22 5 -12 2 9 2 23 0 30 -3 6 -5 -1 -5 -18z M5611 2254 c0 -11
3 -14 6 -6 3 7 2 16 -1 19 -3 4 -6 -2 -5 -13z M6683 2185 c0 -27 2 -38 4 -22
2 15 2 37 0 50 -2 12 -4 0 -4 -28z M6671 2114 c0 -11 3 -14 6 -6 3 7 2 16 -1
19 -3 4 -6 -2 -5 -13z M5686 2097 c3 -10 9 -15 12 -12 3 3 0 11 -7 18 -10 9
-11 8 -5 -6z M6661 2064 c0 -11 3 -14 6 -6 3 7 2 16 -1 19 -3 4 -6 -2 -5 -13z
M6646 2025 c-9 -26 -7 -32 5 -12 6 10 9 21 6 23 -2 3 -7 -2 -11 -11z M5756
1977 c3 -10 9 -15 12 -12 3 3 0 11 -7 18 -10 9 -11 8 -5 -6z M6602 1920 c-31
-54 -28 -65 4 -12 14 24 24 45 22 47 -2 2 -13 -14 -26 -35z M5805 1930 c10
-11 20 -20 23 -20 3 0 -3 9 -13 20 -10 11 -20 20 -23 20 -3 0 3 -9 13 -20z
M5840 1906 c0 -2 8 -10 18 -17 15 -13 16 -12 3 4 -13 16 -21 21 -21 13z M6540
1828 c-19 -16 -26 -26 -15 -20 18 9 64 53 54 52 -2 -1 -20 -15 -39 -32z M5998
1813 c7 -3 16 -2 19 1 4 3 -2 6 -13 5 -11 0 -14 -3 -6 -6z M6090 1780 c8 -5
22 -9 30 -9 10 0 8 3 -5 9 -27 12 -43 12 -25 0z M6428 1773 c7 -3 16 -2 19 1
4 3 -2 6 -13 5 -11 0 -14 -3 -6 -6z M6168 1763 c6 -2 18 -2 25 0 6 3 1 5 -13
5 -14 0 -19 -2 -12 -5z M6378 1763 c6 -2 18 -2 25 0 6 3 1 5 -13 5 -14 0 -19
-2 -12 -5z M6268 1753 c18 -2 45 -2 60 0 15 2 0 4 -33 4 -33 0 -45 -2 -27 -4z"/>
</g>
<g transform="translate(0.000000,1128.000000) scale(0.100000,-0.100000)" fill="#a0a8b0" stroke="none">
<path d="M1799 9593 c-3 -49 6 -63 25 -38 9 12 20 16 35 12 21 -5 22 -4 8 16
-19 29 -67 36 -68 10z M1617 9473 c-21 -20 12 -100 93 -223 37 -56 56 -78 64
-70 23 23 47 8 94 -62 27 -40 66 -104 87 -143 21 -38 51 -89 67 -112 15 -23
28 -44 28 -48 0 -3 34 -58 76 -122 42 -65 77 -125 79 -134 2 -11 -5 -19 -22
-24 -25 -6 -25 -6 -7 -33 10 -15 30 -49 45 -77 64 -119 81 -148 113 -198 20
-28 55 -77 80 -107 24 -30 57 -73 72 -95 16 -22 50 -67 76 -101 60 -77 93
-157 73 -174 -21 -17 -92 27 -150 93 -53 61 -254 348 -462 662 -128 194 -275
413 -479 715 -85 126 -112 148 -142 118 -24 -24 -10 -61 69 -179 44 -67 87
-135 95 -153 14 -28 15 -29 9 -4 -6 30 17 60 39 52 14 -5 111 -145 136 -194 7
-14 16 -27 19 -30 3 -3 19 -30 35 -60 16 -30 69 -116 117 -189 70 -108 86
-139 78 -153 -17 -31 -45 -20 -86 35 -37 49 -203 321 -203 332 0 3 -24 41 -54
84 -29 43 -56 85 -59 92 -4 11 -6 10 -6 -2 -1 -9 7 -27 18 -40 10 -13 27 -42
38 -64 11 -22 41 -78 68 -125 26 -47 55 -98 63 -115 9 -16 59 -97 112 -180 54
-82 109 -172 125 -200 24 -45 187 -291 307 -463 73 -104 92 -142 74 -142 -21
0 -81 54 -130 118 -40 53 -63 85 -196 275 -57 82 -120 166 -247 332 -21 28
-70 95 -108 150 -38 55 -73 102 -77 103 -4 2 -8 7 -8 12 0 9 -214 347 -311
491 -32 48 -64 89 -72 92 -9 3 -23 -3 -32 -13 -14 -16 -15 -24 -5 -54 13 -39
25 -52 35 -36 8 13 42 13 50 -1 4 -5 -1 -19 -10 -29 -16 -18 -16 -21 -2 -44 9
-13 33 -55 53 -93 20 -37 50 -87 66 -110 16 -24 26 -43 22 -43 -3 0 -1 -7 6
-15 7 -8 24 -15 39 -15 24 0 37 -18 123 -162 53 -90 132 -228 175 -308 111
-201 233 -401 381 -624 57 -87 63 -112 30 -125 -23 -9 -23 -9 6 -20 16 -7 35
-19 42 -29 9 -11 13 -13 14 -4 0 10 5 10 21 2 15 -8 34 -8 70 -1 28 6 55 9 60
6 4 -3 21 0 36 8 15 8 34 12 41 10 7 -3 18 0 25 5 7 6 37 14 67 17 30 4 68 16
83 27 34 23 57 17 57 -15 0 -31 -18 -47 -52 -47 -16 0 -36 -9 -45 -20 -10 -11
-25 -20 -34 -20 -24 0 -76 -29 -83 -46 -4 -10 -13 -13 -26 -9 -12 4 -27 2 -34
-4 -7 -6 -35 -14 -61 -18 -27 -3 -57 -15 -67 -25 -22 -22 -16 -36 40 -108 98
-125 194 -203 274 -224 52 -13 53 -14 58 -57 3 -24 14 -56 24 -71 37 -56 159
-105 346 -138 84 -15 115 -32 173 -94 l48 -51 47 50 c125 133 151 185 94 185
-55 0 -67 92 -36 266 22 123 16 151 -46 204 -44 37 -50 47 -50 81 0 21 5 41
11 45 18 11 3 124 -26 205 -15 42 -23 80 -19 94 4 18 -2 35 -23 62 -17 21 -72
101 -123 178 -52 77 -119 173 -150 214 -30 40 -61 83 -69 95 -8 11 -27 35 -41
51 -15 17 -46 59 -70 93 -60 90 -274 376 -335 447 -11 12 -40 49 -65 80 -25
31 -64 78 -87 104 -23 25 -43 49 -43 53 0 4 -9 12 -21 18 -19 11 -20 10 -8
-11 6 -12 26 -43 44 -68 18 -25 43 -66 56 -90 13 -24 29 -51 34 -60 6 -9 32
-56 59 -106 27 -49 65 -117 84 -149 l35 -59 -21 -18 c-12 -9 -22 -21 -22 -26
0 -5 25 -46 55 -92 31 -45 76 -119 102 -164 25 -45 62 -107 83 -137 105 -156
175 -300 145 -300 -42 0 -144 108 -256 270 -44 63 -131 185 -194 270 -121 164
-231 320 -279 398 -61 96 -219 330 -276 407 -33 44 -89 124 -126 178 -61 90
-87 111 -107 90z M1860 9464 c0 -10 287 -431 325 -477 8 -9 15 -20 15 -23 0
-3 13 -24 29 -47 15 -23 36 -55 45 -70 10 -16 20 -26 23 -23 8 8 -47 102 -161
276 -56 85 -110 167 -118 181 -9 14 -23 32 -30 40 -8 8 -39 44 -71 82 -31 37
-57 64 -57 61z M2321 8776 c12 -20 23 -36 25 -36 7 0 -25 58 -36 65 -5 3 -1
-10 11 -29z M1440 8706 c0 -10 40 -76 46 -76 3 0 -2 12 -10 28 -22 40 -36 58
-36 48z M1494 8605 c10 -28 110 -185 115 -180 2 3 -13 33 -34 67 -53 87 -89
137 -81 113z M3372 7364 c10 -10 20 -16 22 -13 3 3 -5 11 -17 18 -21 13 -21
12 -5 -5z M3400 7336 c0 -2 8 -10 18 -17 15 -13 16 -12 3 4 -13 16 -21 21 -21
13z M3437 7100 c-10 -63 -20 -124 -22 -134 -2 -10 0 -15 4 -10 13 15 43 187
39 224 -2 23 -9 -3 -21 -80z M3558 6499 c-10 -5 -18 -17 -18 -25 0 -8 -9 -32
-20 -54 -11 -21 -24 -57 -29 -81 -9 -40 -7 -49 45 -153 31 -61 60 -118 64
-126 84 -142 126 -241 137 -315 3 -25 10 -48 14 -51 5 -3 9 -29 9 -57 0 -59 2
-62 51 -99 30 -22 37 -35 41 -73 3 -25 17 -62 31 -83 17 -27 23 -47 20 -66 -4
-21 -1 -28 15 -33 31 -8 69 -72 76 -127 8 -64 42 -121 108 -180 63 -56 138
-145 138 -164 0 -7 -4 -11 -9 -8 -17 11 -44 -20 -37 -42 7 -22 17 -26 76 -36
26 -4 41 -15 54 -36 9 -17 26 -38 36 -48 17 -16 101 -117 165 -198 17 -21 44
-54 61 -73 48 -55 177 -260 203 -321 42 -100 53 -124 91 -200 63 -127 137
-363 165 -532 20 -123 105 -215 312 -336 39 -23 84 -55 100 -70 44 -44 102
-248 118 -412 9 -98 43 -253 65 -302 21 -46 58 -113 107 -191 36 -58 168 -161
233 -182 25 -8 72 -24 105 -35 138 -48 356 -33 443 30 41 30 95 126 127 225
23 73 44 274 34 332 -4 26 -8 54 -8 61 -1 6 -9 20 -20 31 -10 10 -33 46 -51
80 -20 37 -68 97 -124 154 -81 82 -106 100 -226 165 -74 40 -151 86 -170 103
-166 143 -176 156 -200 258 -7 30 -24 82 -38 115 -13 34 -33 91 -43 129 -11
37 -33 96 -49 131 -26 55 -44 75 -123 139 -149 122 -278 261 -362 392 -21 33
-56 85 -79 115 -23 30 -57 81 -76 113 -33 54 -85 126 -212 293 -93 121 -167
240 -199 321 -17 42 -54 111 -82 151 -41 60 -52 87 -59 135 -15 111 -64 168
-173 202 -29 10 -56 24 -59 32 -4 9 3 31 15 49 22 37 20 60 -7 71 -11 4 -23
-2 -36 -18 l-19 -24 -17 25 c-9 13 -36 47 -60 74 -23 28 -52 77 -64 109 -18
48 -33 68 -87 115 -138 118 -222 213 -316 356 -50 78 -105 165 -121 195 -32
59 -40 65 -66 50z m148 -422 c28 -45 57 -96 64 -114 22 -58 76 -77 147 -51 28
10 36 10 49 -4 23 -22 12 -43 -33 -68 -21 -11 -45 -24 -53 -29 -73 -41 -77
-42 -97 -23 -11 9 -34 53 -53 97 -18 44 -55 113 -82 154 -51 79 -58 104 -31
119 26 15 35 7 89 -81z m324 -292 c18 -22 7 -40 -42 -64 -24 -11 -60 -37 -81
-56 -21 -19 -40 -35 -43 -35 -18 0 -44 24 -44 40 0 31 135 128 181 130 9 0 22
-7 29 -15z m164 -181 c7 -19 -9 -82 -28 -106 -20 -26 -119 -69 -164 -71 -44
-1 -72 16 -72 44 0 25 16 32 70 34 65 1 102 23 124 73 14 31 25 42 42 42 12 0
25 -7 28 -16z m21 -214 c0 -71 -1 -75 -23 -78 -14 -2 -30 5 -41 17 -12 14 -30
21 -55 21 -40 0 -57 21 -39 49 15 25 105 71 133 69 24 -3 25 -5 25 -78z m149
-104 c56 -23 107 -75 104 -105 -4 -37 -33 -38 -75 -1 -20 18 -56 40 -79 51
-41 17 -57 43 -37 62 11 11 51 8 87 -7z m-137 -78 c4 -7 8 -42 9 -78 1 -36 4
-81 6 -100 3 -32 1 -35 -22 -35 -19 0 -29 9 -42 35 -23 44 -24 137 -2 168 17
24 39 29 51 10z m207 -149 c20 -16 26 -29 26 -59 0 -43 -18 -60 -64 -60 -63 0
-77 111 -16 133 24 9 26 8 54 -14z m203 -121 c30 -33 40 -57 48 -113 5 -35 17
-61 39 -85 17 -20 44 -51 60 -70 26 -33 231 -339 341 -513 28 -43 79 -119 114
-169 106 -151 311 -338 371 -338 15 0 38 -8 51 -19 49 -39 -22 -67 -102 -40
-45 16 -148 100 -247 203 -59 62 -127 154 -251 343 -230 349 -327 488 -384
549 -41 45 -49 60 -58 115 -6 35 -20 73 -30 85 -19 20 -25 55 -12 67 13 14 40
7 60 -15z m-185 -138 c27 -50 74 -90 106 -90 55 0 73 -12 99 -64 87 -173 409
-659 445 -671 9 -3 27 -23 40 -45 50 -83 110 -160 207 -262 55 -59 101 -116
101 -126 0 -24 67 -163 134 -277 30 -49 65 -112 79 -140 14 -27 53 -92 87
-144 43 -66 60 -101 58 -120 -5 -42 -40 -39 -76 6 -48 61 -189 260 -250 353
-31 47 -91 120 -134 162 -44 44 -80 89 -84 105 -13 51 -80 196 -133 286 -54
91 -188 297 -216 332 -9 11 -28 39 -42 63 -14 24 -27 41 -30 38 -3 -2 3 -17
13 -33 23 -38 77 -123 224 -358 31 -49 69 -120 83 -157 28 -70 67 -233 67
-278 0 -37 -27 -72 -53 -68 -20 3 -22 8 -19 53 7 118 -64 307 -180 485 -57 88
-90 141 -218 350 -42 69 -92 148 -111 177 -39 58 -107 163 -129 199 -12 19
-13 28 -3 43 10 16 9 20 -10 25 -12 3 -41 23 -64 45 -23 21 -45 36 -49 32 -3
-3 -3 4 0 16 4 12 2 24 -4 28 -14 9 -13 62 3 68 24 11 41 1 59 -33z m1234
-1278 c6 -4 14 -39 17 -77 4 -39 18 -99 32 -133 29 -72 31 -100 9 -109 -26
-10 -43 8 -69 71 -43 105 -60 238 -32 249 18 8 31 8 43 -1z m-353 -301 c53
-36 72 -54 125 -115 47 -55 54 -91 20 -102 -18 -5 -29 1 -58 37 -53 66 -89 98
-148 132 -59 33 -71 49 -51 73 17 21 59 12 112 -25z m827 -418 c0 -8 -13 -32
-30 -53 -16 -21 -30 -47 -30 -57 0 -17 9 -21 65 -26 83 -8 116 -26 190 -102
85 -88 147 -213 153 -312 4 -59 0 -84 -18 -132 -27 -73 -56 -106 -137 -155
-100 -62 -167 -69 -295 -34 -92 25 -145 66 -208 159 -63 91 -85 160 -85 259 0
65 4 92 18 113 9 14 17 29 17 32 0 14 -55 3 -82 -17 -33 -23 -60 -17 -66 15
-4 20 45 65 81 73 48 10 113 -5 141 -33 34 -33 33 -48 -5 -83 -55 -49 -51
-145 11 -275 44 -92 105 -149 189 -174 94 -29 150 -27 214 5 81 41 113 71 136
124 34 79 29 146 -19 247 -74 154 -167 228 -279 221 -77 -4 -91 8 -91 79 0 30
6 66 14 81 16 30 53 67 76 74 19 6 40 -9 40 -29z m55 -326 c60 -34 105 -115
105 -188 0 -42 -6 -65 -23 -90 -27 -40 -91 -79 -131 -79 -45 0 -115 38 -145
81 -32 43 -57 144 -47 185 25 100 146 145 241 91z M4571 4630 c0 -8 6 -24 14
-34 11 -15 15 -16 15 -5 0 8 -7 24 -15 35 -11 14 -14 15 -14 4z"/>
</g>
<g transform="translate(0.000000,1128.000000) scale(0.100000,-0.100000)" fill="#b01010" stroke="none">
<path d="M3938 7532 c-10 -4 18 -7 62 -7 44 0 72 3 62 7 -9 4 -37 7 -62 7 -25
0 -53 -3 -62 -7z M3821 7484 c-89 -44 -196 -145 -235 -222 -15 -30 -26 -56
-23 -58 2 -2 17 22 33 53 41 84 140 176 239 223 44 22 76 39 70 39 -5 1 -43
-15 -84 -35z M4095 7509 c3 -4 23 -13 44 -19 38 -10 38 -10 89 -120 l12 -25
-6 25 c-10 41 -48 113 -64 121 -35 15 -80 27 -75 18z M4003 7407 c-46 -23
-109 -68 -145 -100 l-63 -59 65 55 c36 30 105 75 153 98 103 51 112 48 112
-41 0 -32 3 -53 7 -47 21 39 0 137 -30 137 -10 0 -54 -19 -99 -43z M4243 7305
c0 -22 2 -30 4 -17 2 12 2 30 0 40 -3 9 -5 -1 -4 -23z M4110 7280 c0 -18 -73
-92 -125 -126 -60 -41 -53 -45 9 -6 59 37 149 142 121 142 -3 0 -5 -4 -5 -10z
M3774 7218 l-19 -23 23 19 c21 18 27 26 19 26 -2 0 -12 -10 -23 -22z M4235
7188 c-4 -29 -14 -64 -22 -76 -8 -13 -12 -26 -10 -29 10 -10 36 54 43 105 3
29 4 52 1 52 -3 0 -8 -24 -12 -52z M3538 7142 c-18 -54 -43 -190 -37 -197 3
-2 11 30 18 73 7 42 20 96 28 120 9 23 14 44 11 47 -2 2 -11 -17 -20 -43z
M3710 7118 c-37 -77 -23 -99 45 -72 38 14 15 13 -32 -1 -20 -6 -23 -4 -23 17
0 13 4 28 8 34 11 12 33 64 27 64 -2 0 -14 -19 -25 -42z M3880 7100 c-19 -10
-46 -23 -60 -29 -24 -10 -23 -10 5 -4 32 6 105 40 105 48 0 8 -13 4 -50 -15z
M4143 7017 c-29 -20 -48 -45 -40 -53 2 -2 21 14 42 36 44 45 44 47 -2 17z
M4044 6929 c-62 -50 -142 -99 -198 -120 -53 -22 -76 -36 -76 -49 0 -5 30 -18
68 -30 37 -11 74 -24 82 -27 8 -3 12 -2 8 2 -4 4 -35 17 -69 30 -35 12 -64 26
-66 31 -1 5 28 21 65 36 73 30 259 158 228 158 -2 0 -21 -14 -42 -31z M3481
6889 c-7 -22 -20 -48 -29 -57 -9 -10 -35 -40 -57 -67 -126 -156 -173 -197
-272 -241 -46 -20 -82 -39 -80 -41 8 -7 154 62 193 91 22 17 62 56 89 86 27
30 55 61 63 69 55 56 125 181 110 197 -3 2 -10 -14 -17 -37z M3948 6688 c11
-14 52 -31 52 -22 0 2 -15 11 -32 20 -28 14 -31 15 -20 2z M4035 6637 c37 -27
93 -77 156 -139 48 -47 142 -182 154 -219 4 -10 12 -19 20 -19 21 0 -121 203
-179 258 -94 87 -160 142 -171 142 -5 0 4 -11 20 -23z M3728 6583 c17 -2 47
-2 65 0 17 2 3 4 -33 4 -36 0 -50 -2 -32 -4z M3629 6560 l-24 -21 30 14 c17 8
37 17 45 20 10 4 8 6 -6 6 -12 1 -32 -8 -45 -19z M3830 6575 c0 -2 13 -11 29
-20 16 -8 50 -35 74 -59 45 -44 127 -157 127 -175 0 -5 4 -13 10 -16 32 -20
-54 120 -114 183 -44 48 -126 104 -126 87z M3573 6528 c-12 -6 -24 -17 -27
-24 -4 -10 0 -11 19 -2 13 6 26 17 29 24 3 8 4 14 3 13 -1 0 -12 -5 -24 -11z
M2855 6401 c-89 -43 -195 -100 -236 -129 -73 -49 -159 -133 -159 -155 0 -13 4
-8 44 46 43 59 155 131 351 228 99 48 176 88 170 88 -5 0 -82 -35 -170 -78z
M3476 6354 c-9 -23 -7 -46 3 -40 11 7 21 56 11 56 -4 0 -11 -7 -14 -16z M3360
6354 c9 -3 40 -57 70 -122 48 -103 55 -124 55 -180 0 -61 13 -57 14 4 1 39
-14 83 -73 207 -33 70 -51 97 -64 96 -13 -1 -14 -2 -2 -5z M3251 6318 c-114
-53 -152 -94 -246 -262 -46 -84 -108 -154 -152 -173 -18 -7 -33 -17 -33 -22 0
-9 -89 -65 -157 -100 -35 -17 -55 -20 -113 -17 -39 3 -75 8 -81 11 -25 16 -59
88 -65 137 -5 40 -1 67 14 111 11 31 17 55 13 52 -5 -2 -16 -30 -26 -60 -28
-90 -9 -180 49 -234 21 -19 39 -25 99 -29 85 -5 99 1 243 96 112 74 174 142
244 267 71 128 115 171 221 217 46 21 77 37 69 37 -8 0 -44 -14 -79 -31z
M3475 6281 c-3 -7 2 -24 12 -39 10 -15 23 -38 30 -52 7 -14 17 -32 22 -40 46
-73 60 -164 68 -425 4 -168 3 -210 -11 -264 -10 -35 -15 -65 -13 -67 2 -2 11
23 20 56 26 91 22 350 -8 585 -8 66 -106 267 -120 246z M4095 6260 c9 -16 18
-30 21 -30 2 0 -2 14 -11 30 -9 17 -18 30 -21 30 -2 0 2 -13 11 -30z M4380
6247 c0 -8 37 -63 58 -85 6 -7 12 -19 12 -27 0 -7 6 -15 14 -18 8 -3 53 -63
100 -134 47 -70 97 -141 111 -158 30 -35 -119 189 -213 320 -71 99 -82 113
-82 102z M4126 6209 c6 -8 37 -53 68 -101 31 -49 59 -88 62 -88 6 0 5 3 -52
88 -24 35 -44 71 -44 78 0 7 -10 19 -22 25 -20 10 -21 10 -12 -2z M2750 6130
l-35 -7 39 -2 39 -1 -6 -42 -6 -43 13 35 c9 22 10 41 4 53 -5 9 -10 16 -11 16
-1 -1 -18 -5 -37 -9z M2680 6113 c-92 -35 -190 -103 -190 -132 0 -6 16 6 34
27 31 33 68 56 166 100 25 11 17 15 -10 5z M2445 6089 c-4 -6 -5 -12 -2 -15 2
-3 7 2 10 11 7 17 1 20 -8 4z M2760 5976 c-6 -32 -23 -70 -41 -92 -16 -20 -29
-40 -29 -44 0 -15 -74 -40 -120 -40 -64 0 -79 7 -97 44 l-14 31 6 -30 c9 -43
18 -48 85 -53 76 -6 130 17 162 66 13 19 30 47 39 61 15 24 35 111 25 111 -3
0 -10 -24 -16 -54z M4312 5943 c122 -157 163 -202 251 -276 75 -64 227 -159
227 -143 0 2 -30 21 -67 41 -67 37 -135 87 -183 135 -14 14 -34 32 -46 40 -11
8 -67 72 -123 143 -56 70 -104 127 -107 127 -2 0 19 -30 48 -67z M3465 5923
c-3 -32 -13 -80 -20 -106 -8 -26 -10 -45 -6 -42 16 9 52 205 38 205 -2 0 -8
-26 -12 -57z M2466 5925 c-9 -26 -7 -32 5 -12 6 10 9 21 6 23 -2 3 -7 -2 -11
-11z M4711 5773 c42 -55 69 -87 142 -165 45 -49 85 -88 90 -88 6 0 -27 37 -71
83 -44 45 -99 106 -122 135 -23 28 -44 52 -47 52 -3 0 1 -8 8 -17z M3412 5734
c-6 -16 -14 -42 -18 -59 -4 -16 -15 -46 -24 -65 -10 -19 -20 -46 -24 -60 -4
-14 7 3 23 37 16 34 32 76 36 95 4 18 12 38 17 45 5 7 8 18 6 24 -2 7 -9 -1
-16 -17z M3331 5505 c-1 -11 -4 -31 -6 -45 l-6 -25 11 25 c6 13 9 33 7 45 -4
19 -4 19 -6 0z M4808 5508 c5 -5 16 -8 23 -6 8 3 3 7 -10 11 -17 4 -21 3 -13
-5z M4968 5513 c6 -2 18 -2 25 0 6 3 1 5 -13 5 -14 0 -19 -2 -12 -5z M5025
5500 c19 -8 73 -14 64 -6 -2 2 -22 6 -44 9 -28 5 -34 4 -20 -3z M4875 5481
c17 -10 44 -33 60 -51 17 -17 44 -41 60 -53 17 -11 8 1 -20 27 -74 71 -105 96
-118 96 -7 0 2 -8 18 -19z M5125 5480 c11 -5 34 -8 50 -8 l30 0 -30 8 c-16 4
-39 8 -50 8 l-20 1 20 -9z M5223 5463 c9 -2 23 -2 30 0 6 3 -1 5 -18 5 -16 0
-22 -2 -12 -5z M5295 5449 c17 -5 58 -14 93 -19 62 -10 179 -51 215 -76 33
-22 223 -210 230 -227 4 -10 0 -20 -11 -26 -15 -9 -15 -10 -1 -11 16 0 29 19
29 41 0 5 -15 21 -32 36 -18 16 -60 57 -93 92 -33 35 -78 76 -100 90 -58 40
-158 77 -256 95 -93 17 -121 19 -74 5z M3294 5354 c-13 -59 -15 -103 -11 -183
5 -101 24 -217 33 -208 3 2 0 25 -6 51 -21 93 -24 246 -6 330 9 44 14 81 12
83 -2 3 -12 -30 -22 -73z M3561 5333 c-7 -26 -24 -76 -38 -111 -15 -34 -24
-64 -21 -67 9 -9 82 197 76 216 -2 5 -9 -12 -17 -38z M5050 5340 c65 -58 362
-212 377 -196 2 2 -26 16 -63 30 -37 15 -86 38 -108 50 -126 72 -171 98 -199
117 l-32 21 25 -22z M3486 5123 c-6 -14 -5 -15 5 -6 7 7 10 15 7 18 -3 3 -9
-2 -12 -12z M5501 5121 c36 -10 115 -20 175 -23 l109 -6 -95 9 c-52 5 -125 16
-161 24 -91 20 -109 17 -28 -4z M3465 5090 c-12 -19 6 -48 37 -61 17 -7 51
-29 77 -49 59 -46 179 -117 231 -135 22 -8 70 -31 105 -50 36 -20 65 -34 65
-31 0 8 -122 74 -169 91 -50 17 -138 69 -231 134 -36 25 -74 51 -85 57 -12 7
-19 20 -18 33 3 23 -2 27 -12 11z M3320 4947 c0 -4 10 -29 22 -55 23 -50 165
-200 208 -221 18 -8 15 -4 -10 16 -88 70 -150 138 -184 201 -19 37 -36 64 -36
59z M4010 4735 c13 -14 26 -25 28 -25 3 0 -5 11 -18 25 -13 14 -26 25 -28 25
-3 0 5 -11 18 -25z M4040 4693 c0 -6 9 -33 20 -59 35 -80 65 -238 53 -271 -9
-24 -41 -13 -88 30 -25 24 -60 51 -78 61 l-32 17 30 -23 c16 -13 51 -42 78
-65 79 -70 109 -56 100 46 -6 77 -81 317 -83 264z M3595 4644 c26 -19 243
-128 230 -115 -6 6 -64 38 -130 71 -66 33 -111 53 -100 44z M3855 4505 c11 -9
29 -21 40 -26 l20 -10 -20 16 c-11 9 -29 21 -40 26 l-20 10 20 -16z"/>
</g>
<g transform="translate(0.000000,1128.000000) scale(0.100000,-0.100000)" fill="#e82020" stroke="none">
<path d="M3935 7523 c-11 -3 -56 -22 -100 -43 -174 -83 -274 -228 -314 -455
-26 -148 -60 -222 -133 -296 -8 -8 -36 -39 -63 -69 -68 -77 -117 -111 -220
-155 -169 -71 -430 -203 -503 -254 -81 -58 -120 -105 -165 -201 -26 -54 -31
-77 -31 -135 0 -58 5 -77 27 -112 14 -23 31 -44 36 -48 6 -3 42 -8 81 -11 58
-3 78 0 113 17 68 35 157 91 157 100 0 5 15 15 33 22 44 19 106 89 152 173 60
107 110 178 147 206 39 30 152 83 197 93 30 6 30 6 79 -97 62 -130 75 -171 69
-211 -28 -175 -40 -235 -53 -266 -28 -62 -33 -75 -39 -101 -4 -14 -19 -56 -35
-95 -50 -123 -75 -255 -74 -390 0 -66 7 -147 14 -180 36 -171 153 -297 384
-415 136 -69 288 -165 339 -213 39 -38 71 -47 80 -24 19 49 -52 316 -98 367
-21 23 -150 96 -206 115 -51 18 -172 89 -230 135 -26 20 -60 42 -77 49 -41 17
-47 37 -23 85 40 84 78 193 112 326 19 78 21 102 16 285 -8 261 -22 350 -68
425 -5 8 -14 26 -21 40 -7 14 -18 33 -26 42 -19 23 -25 113 -9 130 14 14 51
87 52 103 1 20 17 55 24 55 4 0 28 14 54 31 61 40 172 52 231 24 83 -40 176
-149 251 -298 17 -32 38 -63 48 -68 9 -5 17 -15 17 -23 0 -33 281 -408 334
-446 12 -8 32 -26 46 -40 71 -71 228 -172 311 -199 20 -6 54 -30 75 -52 21
-22 66 -60 99 -84 54 -39 95 -64 230 -140 120 -68 261 -107 445 -123 111 -10
144 -4 133 25 -7 17 -196 205 -230 227 -34 23 -151 65 -210 75 -32 6 -94 17
-138 26 -347 68 -310 54 -405 156 -96 103 -184 218 -294 382 -43 65 -85 121
-92 124 -8 3 -14 11 -14 18 0 8 -6 20 -12 27 -24 25 -58 77 -58 88 0 5 -6 10
-14 10 -8 0 -17 9 -21 19 -11 37 -106 171 -153 219 -87 86 -154 141 -198 163
-24 11 -46 24 -49 29 -2 4 -43 20 -90 35 -47 15 -85 31 -85 35 0 13 23 28 78
49 29 12 84 42 122 68 39 27 84 57 100 68 16 11 32 27 35 35 3 8 20 24 37 35
86 56 127 247 79 370 -25 66 -47 96 -71 102 -14 3 -36 12 -49 20 -25 16 -131
26 -166 16z m195 -105 c39 -103 -42 -226 -201 -305 -90 -46 -214 -87 -229 -78
-40 25 62 193 173 288 54 46 199 126 229 127 9 0 21 -14 28 -32z m-1341 -1369
c-11 -34 -19 -71 -19 -82 0 -12 -9 -35 -20 -52 -11 -16 -29 -44 -40 -61 -30
-46 -86 -67 -160 -62 -33 2 -65 9 -71 15 -23 23 -22 90 1 147 32 76 101 127
220 164 99 31 116 18 89 -69z"/>
</g>
</svg>